testCID.ufo
<glyph name="cid00000" format="1" >
	<advance width="1000"/>
	<outline>
		<contour>
			<point x="100" y="-120" type="line"/>
			<point x="900" y="-120" type="line"/>
			<point x="900" y="880" type="line"/>
			<point x="100" y="880" type="line"/>
		</contour>
		<contour>
			<point x="500" y="421" type="line"/>
			<point x="182" y="830" type="line"/>
			<point x="818" y="830" type="line"/>
		</contour>
		<contour>
			<point x="532" y="380" type="line"/>
			<point x="850" y="789" type="line"/>
			<point x="850" y="-29" type="line"/>
		</contour>
		<contour>
			<point x="182" y="-70" type="line"/>
			<point x="500" y="339" type="line"/>
			<point x="818" y="-70" type="line"/>
		</contour>
		<contour>
			<point x="150" y="789" type="line"/>
			<point x="468" y="380" type="line"/>
			<point x="150" y="-29" type="line"/>
		</contour>
	</outline>
</glyph>
<glyph name="cid17903" format="1" >
	<advance width="1000"/>
	<outline>
		<contour>
			<point x="483" y="277" type="line"/>
			<point x="483" y="177" type="line"/>
			<point x="799" y="177" type="line"/>
			<point x="799" y="277" type="line"/>
		</contour>
		<contour>
			<point x="342" y="792" type="line"/>
			<point x="342" y="691" type="line"/>
			<point x="941" y="691" type="line"/>
			<point x="941" y="792" type="line"/>
		</contour>
		<contour>
			<point x="371" y="664" type="line"/>
			<point x="371" y="569" type="line"/>
			<point x="912" y="569" type="line"/>
			<point x="912" y="664" type="line"/>
		</contour>
		<contour>
			<point x="311" y="542" type="line"/>
			<point x="311" y="440" type="line"/>
			<point x="973" y="440" type="line"/>
			<point x="973" y="542" type="line"/>
		</contour>
		<contour>
			<point x="484" y="149" type="line"/>
			<point x="484" y="51" type="line"/>
			<point x="800" y="51" type="line"/>
			<point x="800" y="149" type="line"/>
		</contour>
		<contour>
			<point x="375" y="412" type="line"/>
			<point x="375" y="-97" type="line"/>
			<point x="509" y="-97" type="line"/>
			<point x="509" y="308" type="line"/>
			<point x="791" y="308" type="line"/>
			<point x="791" y="412" type="line"/>
		</contour>
		<contour>
			<point x="774" y="412" type="line"/>
			<point x="774" y="40" type="line"/>
			<point x="774" y="28" />
			<point x="769" y="24" />
			<point x="756" y="24" type="curve"/>
			<point x="743" y="24" />
			<point x="695" y="23" />
			<point x="660" y="26" type="curve"/>
			<point x="676" y="-8" />
			<point x="693" y="-61" />
			<point x="698" y="-97" type="curve"/>
			<point x="767" y="-97" />
			<point x="819" y="-96" />
			<point x="859" y="-76" type="curve"/>
			<point x="900" y="-57" />
			<point x="911" y="-23" />
			<point x="911" y="37" type="curve"/>
			<point x="911" y="412" type="line"/>
		</contour>
		<contour>
			<point x="566" y="855" type="line"/>
			<point x="566" y="508" type="line"/>
			<point x="710" y="508" type="line"/>
			<point x="710" y="855" type="line"/>
		</contour>
		<contour>
			<point x="140" y="855" type="line"/>
			<point x="140" y="-95" type="line"/>
			<point x="271" y="-95" type="line"/>
			<point x="271" y="855" type="line"/>
		</contour>
		<contour>
			<point x="50" y="654" type="line"/>
			<point x="45" y="571" />
			<point x="31" y="458" />
			<point x="11" y="389" type="curve"/>
			<point x="115" y="353" type="line"/>
			<point x="134" y="433" />
			<point x="149" y="555" />
			<point x="150" y="642" type="curve"/>
		</contour>
		<contour>
			<point x="240" y="687" type="line"/>
			<point x="260" y="639" />
			<point x="285" y="575" />
			<point x="295" y="536" type="curve"/>
			<point x="388" y="580" type="line"/>
			<point x="376" y="617" />
			<point x="349" y="678" />
			<point x="328" y="724" type="curve"/>
		</contour>
	</outline>
</glyph>
<glyph name="cid17905" format="1" >
	<advance width="1000"/>
	<outline>
		<contour>
			<point x="365" y="824" type="line"/>
			<point x="365" y="382" type="line"/>
			<point x="365" y="249" />
			<point x="360" y="87" />
			<point x="286" y="-19" type="curve"/>
			<point x="318" y="-34" />
			<point x="378" y="-74" />
			<point x="402" y="-97" type="curve"/>
			<point x="487" y="23" />
			<point x="499" y="230" />
			<point x="499" y="382" type="curve"/>
			<point x="499" y="824" type="line"/>
		</contour>
		<contour>
			<point x="448" y="824" type="line"/>
			<point x="448" y="692" type="line"/>
			<point x="863" y="692" type="line"/>
			<point x="863" y="824" type="line"/>
		</contour>
		<contour>
			<point x="814" y="824" type="line"/>
			<point x="814" y="74" type="line"/>
			<point x="814" y="60" />
			<point x="809" y="55" />
			<point x="796" y="55" type="curve"/>
			<point x="782" y="55" />
			<point x="739" y="55" />
			<point x="702" y="58" type="curve"/>
			<point x="720" y="19" />
			<point x="739" y="-50" />
			<point x="742" y="-91" type="curve"/>
			<point x="814" y="-91" />
			<point x="864" y="-87" />
			<point x="903" y="-62" type="curve"/>
			<point x="941" y="-38" />
			<point x="951" y="5" />
			<point x="951" y="71" type="curve"/>
			<point x="951" y="824" type="line"/>
		</contour>
		<contour>
			<point x="527" y="627" type="line"/>
			<point x="527" y="526" type="line"/>
			<point x="789" y="526" type="line"/>
			<point x="789" y="627" type="line"/>
		</contour>
		<contour>
			<point x="527" y="497" type="line"/>
			<point x="527" y="396" type="line"/>
			<point x="789" y="396" type="line"/>
			<point x="789" y="497" type="line"/>
		</contour>
		<contour>
			<point x="600" y="678" type="line"/>
			<point x="600" y="349" type="line"/>
			<point x="721" y="349" type="line"/>
			<point x="721" y="678" type="line"/>
		</contour>
		<contour>
			<point x="596" y="334" type="line"/>
			<point x="596" y="233" type="line"/>
			<point x="681" y="233" type="line"/>
			<point x="681" y="185" type="line"/>
			<point x="596" y="185" type="line"/>
			<point x="596" y="83" type="line"/>
			<point x="783" y="83" type="line"/>
			<point x="783" y="334" type="line"/>
		</contour>
		<contour>
			<point x="533" y="334" type="line"/>
			<point x="533" y="32" type="line"/>
			<point x="633" y="32" type="line"/>
			<point x="633" y="334" type="line"/>
		</contour>
		<contour>
			<point x="145" y="855" type="line"/>
			<point x="145" y="-95" type="line"/>
			<point x="282" y="-95" type="line"/>
			<point x="282" y="855" type="line"/>
		</contour>
		<contour>
			<point x="59" y="654" type="line"/>
			<point x="58" y="563" />
			<point x="44" y="452" />
			<point x="14" y="389" type="curve"/>
			<point x="102" y="350" type="line"/>
			<point x="136" y="426" />
			<point x="150" y="544" />
			<point x="148" y="643" type="curve"/>
		</contour>
		<contour>
			<point x="244" y="653" type="line"/>
			<point x="272" y="586" />
			<point x="296" y="499" />
			<point x="301" y="444" type="curve"/>
			<point x="388" y="478" type="line"/>
			<point x="382" y="532" />
			<point x="355" y="617" />
			<point x="325" y="682" type="curve"/>
		</contour>
	</outline>
</glyph>
<glyph name="cid17907" format="1" >
	<advance width="1000"/>
	<outline>
		<contour>
			<point x="141" y="855" type="line"/>
			<point x="141" y="-95" type="line"/>
			<point x="270" y="-95" type="line"/>
			<point x="270" y="855" type="line"/>
		</contour>
		<contour>
			<point x="50" y="654" type="line"/>
			<point x="45" y="571" />
			<point x="31" y="458" />
			<point x="11" y="389" type="curve"/>
			<point x="115" y="353" type="line"/>
			<point x="134" y="433" />
			<point x="149" y="555" />
			<point x="150" y="642" type="curve"/>
		</contour>
		<contour>
			<point x="240" y="664" type="line"/>
			<point x="261" y="592" />
			<point x="284" y="497" />
			<point x="293" y="440" type="curve"/>
			<point x="389" y="476" type="line"/>
			<point x="378" y="530" />
			<point x="352" y="622" />
			<point x="329" y="692" type="curve"/>
		</contour>
		<contour>
			<point x="366" y="819" type="line"/>
			<point x="366" y="462" type="line"/>
			<point x="366" y="312" />
			<point x="359" y="110" />
			<point x="270" y="-24" type="curve"/>
			<point x="303" y="-38" />
			<point x="363" y="-74" />
			<point x="388" y="-96" type="curve"/>
			<point x="485" y="51" />
			<point x="500" y="294" />
			<point x="500" y="462" type="curve"/>
			<point x="500" y="819" type="line"/>
		</contour>
		<contour>
			<point x="449" y="819" type="line"/>
			<point x="449" y="687" type="line"/>
			<point x="864" y="687" type="line"/>
			<point x="864" y="819" type="line"/>
		</contour>
		<contour>
			<point x="810" y="819" type="line"/>
			<point x="810" y="69" type="line"/>
			<point x="810" y="55" />
			<point x="805" y="50" />
			<point x="792" y="50" type="curve"/>
			<point x="778" y="50" />
			<point x="735" y="50" />
			<point x="698" y="53" type="curve"/>
			<point x="716" y="14" />
			<point x="735" y="-55" />
			<point x="738" y="-96" type="curve"/>
			<point x="810" y="-96" />
			<point x="860" y="-92" />
			<point x="899" y="-67" type="curve"/>
			<point x="937" y="-43" />
			<point x="947" y="0" />
			<point x="947" y="66" type="curve"/>
			<point x="947" y="819" type="line"/>
		</contour>
		<contour>
			<point x="464" y="633" type="line"/>
			<point x="464" y="524" type="line"/>
			<point x="856" y="524" type="line"/>
			<point x="856" y="633" type="line"/>
		</contour>
		<contour>
			<point x="465" y="478" type="line"/>
			<point x="465" y="369" type="line"/>
			<point x="857" y="369" type="line"/>
			<point x="857" y="478" type="line"/>
		</contour>
		<contour>
			<point x="598" y="738" type="line"/>
			<point x="598" y="436" type="line"/>
			<point x="714" y="436" type="line"/>
			<point x="714" y="738" type="line"/>
		</contour>
		<contour>
			<point x="584" y="341" type="line"/>
			<point x="584" y="240" type="line"/>
			<point x="678" y="240" type="line"/>
			<point x="678" y="176" type="line"/>
			<point x="584" y="176" type="line"/>
			<point x="584" y="75" type="line"/>
			<point x="780" y="75" type="line"/>
			<point x="780" y="341" type="line"/>
		</contour>
		<contour>
			<point x="514" y="341" type="line"/>
			<point x="514" y="39" type="line"/>
			<point x="614" y="39" type="line"/>
			<point x="614" y="341" type="line"/>
		</contour>
	</outline>
</glyph>
<glyph name="cid17910" format="1" >
	<advance width="1000"/>
	<outline>
		<contour>
			<point x="340" y="774" type="line"/>
			<point x="340" y="656" type="line"/>
			<point x="962" y="656" type="line"/>
			<point x="962" y="774" type="line"/>
		</contour>
		<contour>
			<point x="313" y="193" type="line"/>
			<point x="313" y="80" type="line"/>
			<point x="975" y="80" type="line"/>
			<point x="975" y="193" type="line"/>
		</contour>
		<contour>
			<point x="380" y="363" type="line"/>
			<point x="380" y="256" type="line"/>
			<point x="840" y="256" type="line"/>
			<point x="840" y="363" type="line"/>
		</contour>
		<contour>
			<point x="532" y="527" type="line"/>
			<point x="767" y="527" type="line"/>
			<point x="767" y="487" type="line"/>
			<point x="532" y="487" type="line"/>
		</contour>
		<contour>
			<point x="400" y="623" type="line"/>
			<point x="400" y="390" type="line"/>
			<point x="908" y="390" type="line"/>
			<point x="908" y="623" type="line"/>
		</contour>
		<contour>
			<point x="796" y="363" type="line"/>
			<point x="796" y="339" type="line"/>
			<point x="757" y="307" />
			<point x="664" y="260" />
			<point x="589" y="234" type="curve"/>
			<point x="606" y="216" />
			<point x="639" y="180" />
			<point x="653" y="158" type="curve"/>
			<point x="752" y="193" />
			<point x="858" y="245" />
			<point x="940" y="297" type="curve"/>
			<point x="858" y="370" type="line"/>
			<point x="830" y="363" type="line"/>
		</contour>
		<contour>
			<point x="589" y="234" type="line"/>
			<point x="589" y="39" type="line"/>
			<point x="589" y="27" />
			<point x="584" y="24" />
			<point x="569" y="23" type="curve"/>
			<point x="555" y="23" />
			<point x="496" y="23" />
			<point x="457" y="25" type="curve"/>
			<point x="473" y="-9" />
			<point x="491" y="-58" />
			<point x="497" y="-95" type="curve"/>
			<point x="570" y="-96" />
			<point x="628" y="-95" />
			<point x="673" y="-78" type="curve"/>
			<point x="719" y="-60" />
			<point x="731" y="-28" />
			<point x="731" y="34" type="curve"/>
			<point x="731" y="234" type="line"/>
		</contour>
		<contour>
			<point x="144" y="855" type="line"/>
			<point x="144" y="-95" type="line"/>
			<point x="279" y="-95" type="line"/>
			<point x="279" y="855" type="line"/>
		</contour>
		<contour>
			<point x="55" y="671" type="line"/>
			<point x="49" y="582" />
			<point x="32" y="463" />
			<point x="8" y="391" type="curve"/>
			<point x="115" y="353" type="line"/>
			<point x="138" y="436" />
			<point x="155" y="564" />
			<point x="158" y="658" type="curve"/>
		</contour>
		<contour>
			<point x="246" y="663" type="line"/>
			<point x="271" y="596" />
			<point x="299" y="507" />
			<point x="309" y="453" type="curve"/>
			<point x="409" y="489" type="line"/>
			<point x="398" y="542" />
			<point x="367" y="628" />
			<point x="340" y="693" type="curve"/>
		</contour>
		<contour>
			<point x="558" y="829" type="line"/>
			<point x="576" y="785" />
			<point x="598" y="725" />
			<point x="607" y="690" type="curve"/>
			<point x="743" y="729" type="line"/>
			<point x="732" y="765" />
			<point x="706" y="821" />
			<point x="687" y="863" type="curve"/>
		</contour>
	</outline>
</glyph>
<glyph name="cid17912" format="1" >
	<advance width="1000"/>
	<outline>
		<contour>
			<point x="544" y="855" type="line"/>
			<point x="544" y="526" type="line"/>
			<point x="688" y="526" type="line"/>
			<point x="688" y="855" type="line"/>
		</contour>
		<contour>
			<point x="613" y="765" type="line"/>
			<point x="613" y="641" type="line"/>
			<point x="956" y="641" type="line"/>
			<point x="956" y="765" type="line"/>
		</contour>
		<contour>
			<point x="115" y="748" type="line"/>
			<point x="175" y="723" />
			<point x="252" y="680" />
			<point x="288" y="648" type="curve"/>
			<point x="363" y="760" type="line"/>
			<point x="324" y="791" />
			<point x="245" y="829" />
			<point x="186" y="850" type="curve"/>
		</contour>
		<contour>
			<point x="29" y="605" type="line"/>
			<point x="86" y="581" />
			<point x="160" y="540" />
			<point x="194" y="509" type="curve"/>
			<point x="269" y="621" type="line"/>
			<point x="232" y="651" />
			<point x="156" y="687" />
			<point x="100" y="707" type="curve"/>
		</contour>
		<contour>
			<point x="56" y="342" type="curve"/>
			<point x="150" y="227" type="line"/>
			<point x="219" y="303" />
			<point x="289" y="385" />
			<point x="350" y="462" type="curve"/>
			<point x="272" y="572" type="line"/>
			<point x="200" y="484" />
			<point x="115" y="395" />
		</contour>
		<contour>
			<point x="502" y="461" type="line"/>
			<point x="782" y="461" type="line"/>
			<point x="782" y="397" type="line"/>
			<point x="502" y="397" type="line"/>
		</contour>
		<contour>
			<point x="366" y="582" type="line"/>
			<point x="366" y="276" type="line"/>
			<point x="925" y="276" type="line"/>
			<point x="925" y="582" type="line"/>
		</contour>
		<contour>
			<point x="285" y="221" type="line"/>
			<point x="285" y="76" type="line"/>
			<point x="285" y="-41" />
			<point x="318" y="-80" />
			<point x="460" y="-80" type="curve"/>
			<point x="489" y="-80" />
			<point x="578" y="-80" />
			<point x="607" y="-80" type="curve"/>
			<point x="714" y="-80" />
			<point x="752" y="-48" />
			<point x="768" y="80" type="curve"/>
			<point x="730" y="88" />
			<point x="671" y="109" />
			<point x="642" y="130" type="curve"/>
			<point x="637" y="56" />
			<point x="630" y="45" />
			<point x="595" y="45" type="curve"/>
			<point x="570" y="45" />
			<point x="498" y="45" />
			<point x="478" y="45" type="curve"/>
			<point x="433" y="45" />
			<point x="425" y="48" />
			<point x="425" y="78" type="curve"/>
			<point x="425" y="221" type="line"/>
		</contour>
		<contour>
			<point x="395" y="239" type="line"/>
			<point x="449" y="199" />
			<point x="511" y="139" />
			<point x="537" y="97" type="curve"/>
			<point x="643" y="178" type="line"/>
			<point x="612" y="221" />
			<point x="547" y="276" />
			<point x="493" y="312" type="curve"/>
		</contour>
		<contour>
			<point x="703" y="173" type="line"/>
			<point x="765" y="102" />
			<point x="827" y="6" />
			<point x="847" y="-60" type="curve"/>
			<point x="980" y="5" type="line"/>
			<point x="956" y="75" />
			<point x="890" y="166" />
			<point x="826" y="232" type="curve"/>
		</contour>
		<contour>
			<point x="153" y="219" type="line"/>
			<point x="132" y="137" />
			<point x="89" y="62" />
			<point x="28" y="13" type="curve"/>
			<point x="146" y="-66" type="line"/>
			<point x="216" y="-7" />
			<point x="254" y="84" />
			<point x="280" y="176" type="curve"/>
		</contour>
	</outline>
</glyph>
<glyph name="cid17913" format="1" >
	<advance width="1000"/>
	<outline>
		<contour>
			<point x="546" y="452" type="line"/>
			<point x="769" y="452" type="line"/>
			<point x="769" y="376" type="line"/>
			<point x="546" y="376" type="line"/>
		</contour>
		<contour>
			<point x="410" y="572" type="line"/>
			<point x="410" y="257" type="line"/>
			<point x="912" y="257" type="line"/>
			<point x="912" y="572" type="line"/>
		</contour>
		<contour>
			<point x="730" y="175" type="line"/>
			<point x="776" y="114" />
			<point x="828" y="31" />
			<point x="850" y="-23" type="curve"/>
			<point x="977" y="48" type="line"/>
			<point x="952" y="101" />
			<point x="900" y="177" />
			<point x="851" y="235" type="curve"/>
		</contour>
		<contour>
			<point x="361" y="736" type="line"/>
			<point x="361" y="605" type="line"/>
			<point x="960" y="605" type="line"/>
			<point x="960" y="736" type="line"/>
		</contour>
		<contour>
			<point x="584" y="855" type="line"/>
			<point x="584" y="679" type="line"/>
			<point x="728" y="679" type="line"/>
			<point x="728" y="855" type="line"/>
		</contour>
		<contour>
			<point x="584" y="300" type="line"/>
			<point x="584" y="50" type="line"/>
			<point x="584" y="40" />
			<point x="580" y="37" />
			<point x="569" y="37" type="curve"/>
			<point x="558" y="37" />
			<point x="519" y="37" />
			<point x="491" y="39" type="curve"/>
			<point x="507" y="0" />
			<point x="524" y="-55" />
			<point x="528" y="-96" type="curve"/>
			<point x="590" y="-96" />
			<point x="639" y="-94" />
			<point x="679" y="-74" type="curve"/>
			<point x="720" y="-52" />
			<point x="728" y="-16" />
			<point x="728" y="46" type="curve"/>
			<point x="728" y="300" type="line"/>
		</contour>
		<contour>
			<point x="448" y="231" type="line"/>
			<point x="417" y="165" />
			<point x="364" y="93" />
			<point x="313" y="47" type="curve"/>
			<point x="345" y="27" />
			<point x="400" y="-17" />
			<point x="426" y="-41" type="curve"/>
			<point x="479" y="15" />
			<point x="543" y="107" />
			<point x="584" y="188" type="curve"/>
		</contour>
		<contour>
			<point x="151" y="855" type="line"/>
			<point x="151" y="-95" type="line"/>
			<point x="291" y="-95" type="line"/>
			<point x="291" y="855" type="line"/>
		</contour>
		<contour>
			<point x="59" y="654" type="line"/>
			<point x="58" y="563" />
			<point x="44" y="452" />
			<point x="14" y="389" type="curve"/>
			<point x="107" y="348" type="line"/>
			<point x="141" y="425" />
			<point x="155" y="543" />
			<point x="153" y="642" type="curve"/>
		</contour>
		<contour>
			<point x="255" y="646" type="line"/>
			<point x="287" y="581" />
			<point x="317" y="496" />
			<point x="325" y="443" type="curve"/>
			<point x="414" y="484" type="line"/>
			<point x="405" y="537" />
			<point x="372" y="619" />
			<point x="338" y="682" type="curve"/>
		</contour>
	</outline>
</glyph>
<glyph name="cid17915" format="1" >
	<advance width="1000"/>
	<outline>
		<contour>
			<point x="725" y="506" type="line"/>
			<point x="725" y="385" type="line"/>
			<point x="874" y="385" type="line"/>
			<point x="874" y="506" type="line"/>
		</contour>
		<contour>
			<point x="441" y="493" type="line"/>
			<point x="441" y="372" type="line"/>
			<point x="599" y="372" type="line"/>
			<point x="599" y="493" type="line"/>
		</contour>
		<contour>
			<point x="581" y="855" type="line"/>
			<point x="581" y="675" type="line"/>
			<point x="725" y="675" type="line"/>
			<point x="725" y="855" type="line"/>
		</contour>
		<contour>
			<point x="348" y="741" type="line"/>
			<point x="348" y="543" type="line"/>
			<point x="479" y="543" type="line"/>
			<point x="479" y="617" type="line"/>
			<point x="823" y="617" type="line"/>
			<point x="823" y="543" type="line"/>
			<point x="961" y="543" type="line"/>
			<point x="961" y="741" type="line"/>
		</contour>
		<contour>
			<point x="368" y="244" type="line"/>
			<point x="407" y="216" />
			<point x="457" y="174" />
			<point x="479" y="146" type="curve"/>
			<point x="562" y="242" type="line"/>
			<point x="537" y="270" />
			<point x="485" y="307" />
			<point x="447" y="331" type="curve"/>
		</contour>
		<contour>
			<point x="661" y="506" type="line"/>
			<point x="661" y="74" type="line"/>
			<point x="661" y="-52" />
			<point x="690" y="-86" />
			<point x="784" y="-86" type="curve"/>
			<point x="804" y="-86" />
			<point x="846" y="-86" />
			<point x="866" y="-86" type="curve"/>
			<point x="945" y="-86" />
			<point x="977" y="-47" />
			<point x="991" y="80" type="curve"/>
			<point x="956" y="88" />
			<point x="905" y="110" />
			<point x="879" y="130" type="curve"/>
			<point x="876" y="49" />
			<point x="872" y="34" />
			<point x="854" y="34" type="curve"/>
			<point x="845" y="34" />
			<point x="815" y="34" />
			<point x="807" y="34" type="curve"/>
			<point x="788" y="34" />
			<point x="785" y="38" />
			<point x="785" y="75" type="curve"/>
			<point x="785" y="506" type="line"/>
		</contour>
		<contour>
			<point x="825" y="506" type="line"/>
			<point x="825" y="254" type="line"/>
			<point x="825" y="246" />
			<point x="823" y="243" />
			<point x="815" y="243" type="curve"/>
			<point x="808" y="243" />
			<point x="789" y="243" />
			<point x="772" y="244" type="curve"/>
			<point x="787" y="213" />
			<point x="802" y="166" />
			<point x="807" y="132" type="curve"/>
			<point x="848" y="132" />
			<point x="882" y="134" />
			<point x="910" y="153" type="curve"/>
			<point x="940" y="172" />
			<point x="946" y="203" />
			<point x="946" y="251" type="curve"/>
			<point x="946" y="506" type="line"/>
		</contour>
		<contour>
			<point x="421" y="594" type="line"/>
			<point x="391" y="463" />
			<point x="333" y="336" />
			<point x="253" y="260" type="curve"/>
			<point x="284" y="242" />
			<point x="340" y="202" />
			<point x="365" y="180" type="curve"/>
			<point x="446" y="270" />
			<point x="515" y="414" />
			<point x="553" y="567" type="curve"/>
		</contour>
		<contour>
			<point x="549" y="493" type="line"/>
			<point x="549" y="468" type="line"/>
			<point x="521" y="247" />
			<point x="434" y="88" />
			<point x="298" y="6" type="curve"/>
			<point x="326" y="-14" />
			<point x="373" y="-66" />
			<point x="392" y="-96" type="curve"/>
			<point x="536" y="1" />
			<point x="639" y="194" />
			<point x="678" y="469" type="curve"/>
			<point x="597" y="497" type="line"/>
			<point x="574" y="493" type="line"/>
		</contour>
		<contour>
			<point x="133" y="855" type="line"/>
			<point x="133" y="-95" type="line"/>
			<point x="264" y="-95" type="line"/>
			<point x="264" y="855" type="line"/>
		</contour>
		<contour>
			<point x="55" y="654" type="line"/>
			<point x="55" y="564" />
			<point x="43" y="453" />
			<point x="15" y="389" type="curve"/>
			<point x="99" y="353" type="line"/>
			<point x="131" y="429" />
			<point x="143" y="547" />
			<point x="140" y="643" type="curve"/>
		</contour>
		<contour>
			<point x="238" y="657" type="line"/>
			<point x="261" y="589" />
			<point x="279" y="500" />
			<point x="280" y="446" type="curve"/>
			<point x="363" y="473" type="line"/>
			<point x="361" y="527" />
			<point x="341" y="612" />
			<point x="315" y="680" type="curve"/>
		</contour>
	</outline>
</glyph>
<glyph name="cid17923" format="1" >
	<advance width="1000"/>
	<outline>
		<contour>
			<point x="133" y="855" type="line"/>
			<point x="133" y="-95" type="line"/>
			<point x="263" y="-95" type="line"/>
			<point x="263" y="855" type="line"/>
		</contour>
		<contour>
			<point x="53" y="654" type="line"/>
			<point x="48" y="572" />
			<point x="34" y="458" />
			<point x="14" y="389" type="curve"/>
			<point x="111" y="356" type="line"/>
			<point x="130" y="435" />
			<point x="144" y="556" />
			<point x="146" y="642" type="curve"/>
		</contour>
		<contour>
			<point x="221" y="664" type="line"/>
			<point x="243" y="591" />
			<point x="268" y="496" />
			<point x="278" y="439" type="curve"/>
			<point x="367" y="472" type="line"/>
			<point x="356" y="527" />
			<point x="328" y="620" />
			<point x="304" y="691" type="curve"/>
		</contour>
		<contour>
			<point x="333" y="723" type="line"/>
			<point x="333" y="592" type="line"/>
			<point x="968" y="592" type="line"/>
			<point x="968" y="723" type="line"/>
		</contour>
		<contour>
			<point x="300" y="145" type="curve"/>
			<point x="352" y="7" type="line"/>
			<point x="443" y="35" />
			<point x="554" y="70" />
			<point x="658" y="104" type="curve"/>
			<point x="641" y="223" type="line"/>
			<point x="516" y="193" />
			<point x="384" y="161" />
		</contour>
		<contour>
			<point x="639" y="854" type="line"/>
			<point x="641" y="427" />
			<point x="672" y="-95" />
			<point x="853" y="-95" type="curve"/>
			<point x="935" y="-95" />
			<point x="968" y="-59" />
			<point x="988" y="75" type="curve"/>
			<point x="958" y="91" />
			<point x="919" y="121" />
			<point x="893" y="154" type="curve"/>
			<point x="891" y="74" />
			<point x="883" y="39" />
			<point x="872" y="39" type="curve"/>
			<point x="819" y="39" />
			<point x="766" y="489" />
			<point x="776" y="854" type="curve"/>
		</contour>
		<contour>
			<point x="794" y="791" type="line"/>
			<point x="829" y="764" />
			<point x="873" y="725" />
			<point x="892" y="698" type="curve"/>
			<point x="975" y="779" type="line"/>
			<point x="953" y="804" />
			<point x="908" y="840" />
			<point x="872" y="864" type="curve"/>
		</contour>
		<contour>
			<point x="827" y="542" type="line"/>
			<point x="779" y="297" />
			<point x="676" y="105" />
			<point x="500" y="-3" type="curve"/>
			<point x="530" y="-24" />
			<point x="585" y="-72" />
			<point x="606" y="-96" type="curve"/>
			<point x="783" y="32" />
			<point x="898" y="244" />
			<point x="959" y="519" type="curve"/>
		</contour>
		<contour>
			<point x="467" y="434" type="line"/>
			<point x="507" y="434" type="line"/>
			<point x="507" y="328" type="line"/>
			<point x="467" y="328" type="line"/>
		</contour>
		<contour>
			<point x="358" y="541" type="line"/>
			<point x="358" y="222" type="line"/>
			<point x="623" y="222" type="line"/>
			<point x="623" y="541" type="line"/>
		</contour>
	</outline>
</glyph>
<glyph name="cid17924" format="1" >
	<advance width="1000"/>
	<outline>
		<contour>
			<point x="657" y="776" type="line"/>
			<point x="703" y="753" />
			<point x="761" y="716" />
			<point x="787" y="689" type="curve"/>
			<point x="874" y="780" type="line"/>
			<point x="844" y="807" />
			<point x="785" y="840" />
			<point x="739" y="859" type="curve"/>
		</contour>
		<contour>
			<point x="59" y="752" type="line"/>
			<point x="59" y="628" type="line"/>
			<point x="942" y="628" type="line"/>
			<point x="942" y="752" type="line"/>
		</contour>
		<contour>
			<point x="49" y="328" type="curve"/>
			<point x="57" y="207" type="line"/>
			<point x="176" y="215" />
			<point x="338" y="227" />
			<point x="490" y="239" type="curve"/>
			<point x="490" y="355" type="line"/>
			<point x="333" y="344" />
			<point x="164" y="333" />
		</contour>
		<contour>
			<point x="743" y="616" type="line"/>
			<point x="699" y="491" />
			<point x="608" y="385" />
			<point x="493" y="324" type="curve"/>
			<point x="522" y="301" />
			<point x="573" y="249" />
			<point x="594" y="222" type="curve"/>
			<point x="715" y="300" />
			<point x="820" y="429" />
			<point x="878" y="583" type="curve"/>
		</contour>
		<contour>
			<point x="479" y="855" type="line"/>
			<point x="494" y="525" />
			<point x="616" y="208" />
			<point x="808" y="208" type="curve"/>
			<point x="901" y="208" />
			<point x="944" y="238" />
			<point x="965" y="386" type="curve"/>
			<point x="929" y="398" />
			<point x="882" y="425" />
			<point x="853" y="453" type="curve"/>
			<point x="847" y="375" />
			<point x="838" y="346" />
			<point x="816" y="346" type="curve"/>
			<point x="732" y="346" />
			<point x="631" y="602" />
			<point x="623" y="855" type="curve"/>
		</contour>
		<contour>
			<point x="266" y="174" type="line"/>
			<point x="266" y="71" type="line"/>
			<point x="266" y="-43" />
			<point x="302" y="-80" />
			<point x="453" y="-80" type="curve"/>
			<point x="484" y="-80" />
			<point x="584" y="-80" />
			<point x="616" y="-80" type="curve"/>
			<point x="725" y="-80" />
			<point x="765" y="-51" />
			<point x="781" y="66" type="curve"/>
			<point x="743" y="73" />
			<point x="683" y="93" />
			<point x="655" y="113" type="curve"/>
			<point x="649" y="51" />
			<point x="642" y="41" />
			<point x="603" y="41" type="curve"/>
			<point x="574" y="41" />
			<point x="492" y="41" />
			<point x="469" y="41" type="curve"/>
			<point x="419" y="41" />
			<point x="410" y="44" />
			<point x="410" y="73" type="curve"/>
			<point x="410" y="174" type="line"/>
		</contour>
		<contour>
			<point x="412" y="192" type="line"/>
			<point x="471" y="156" />
			<point x="543" y="101" />
			<point x="574" y="61" type="curve"/>
			<point x="667" y="149" type="line"/>
			<point x="632" y="189" />
			<point x="558" y="240" />
			<point x="499" y="272" type="curve"/>
		</contour>
		<contour>
			<point x="741" y="159" type="line"/>
			<point x="780" y="86" />
			<point x="819" y="-10" />
			<point x="831" y="-70" type="curve"/>
			<point x="977" y="-24" type="line"/>
			<point x="961" y="39" />
			<point x="917" y="130" />
			<point x="876" y="199" type="curve"/>
		</contour>
		<contour>
			<point x="122" y="199" type="line"/>
			<point x="104" y="126" />
			<point x="70" y="48" />
			<point x="32" y="-5" type="curve"/>
			<point x="162" y="-77" type="line"/>
			<point x="201" y="-16" />
			<point x="231" y="73" />
			<point x="252" y="149" type="curve"/>
		</contour>
		<contour>
			<point x="231" y="505" type="line"/>
			<point x="322" y="505" type="line"/>
			<point x="322" y="462" type="line"/>
			<point x="231" y="462" type="line"/>
		</contour>
		<contour>
			<point x="103" y="597" type="line"/>
			<point x="103" y="369" type="line"/>
			<point x="458" y="369" type="line"/>
			<point x="458" y="597" type="line"/>
		</contour>
	</outline>
</glyph>
<glyph name="cid17928" format="1" >
	<advance width="1000"/>
	<outline>
		<contour>
			<point x="578" y="542" type="line"/>
			<point x="677" y="495" />
			<point x="811" y="418" />
			<point x="872" y="364" type="curve"/>
			<point x="963" y="480" type="line"/>
			<point x="896" y="533" />
			<point x="758" y="603" />
			<point x="662" y="644" type="curve"/>
		</contour>
		<contour>
			<point x="605" y="846" type="line"/>
			<point x="601" y="628" />
			<point x="598" y="535" />
			<point x="354" y="485" type="curve"/>
			<point x="381" y="457" />
			<point x="416" y="402" />
			<point x="428" y="367" type="curve"/>
			<point x="720" y="436" />
			<point x="743" y="579" />
			<point x="749" y="846" type="curve"/>
		</contour>
		<contour>
			<point x="443" y="804" type="line"/>
			<point x="427" y="740" />
			<point x="396" y="667" />
			<point x="364" y="625" type="curve"/>
			<point x="489" y="579" type="line"/>
			<point x="523" y="631" />
			<point x="553" y="710" />
			<point x="568" y="778" type="curve"/>
		</contour>
		<contour>
			<point x="420" y="357" type="line"/>
			<point x="404" y="292" />
			<point x="373" y="216" />
			<point x="340" y="174" type="curve"/>
			<point x="465" y="119" type="line"/>
			<point x="501" y="174" />
			<point x="533" y="259" />
			<point x="548" y="331" type="curve"/>
		</contour>
		<contour>
			<point x="822" y="803" type="line"/>
			<point x="803" y="749" />
			<point x="767" y="676" />
			<point x="736" y="628" type="curve"/>
			<point x="849" y="586" type="line"/>
			<point x="884" y="629" />
			<point x="928" y="693" />
			<point x="970" y="758" type="curve"/>
		</contour>
		<contour>
			<point x="829" y="363" type="line"/>
			<point x="811" y="303" />
			<point x="777" y="224" />
			<point x="748" y="171" type="curve"/>
			<point x="860" y="132" type="line"/>
			<point x="892" y="179" />
			<point x="933" y="251" />
			<point x="971" y="321" type="curve"/>
		</contour>
		<contour>
			<point x="588" y="428" type="line"/>
			<point x="582" y="197" />
			<point x="578" y="91" />
			<point x="300" y="33" type="curve"/>
			<point x="330" y="2" />
			<point x="367" y="-57" />
			<point x="380" y="-95" type="curve"/>
			<point x="701" y="-14" />
			<point x="726" y="145" />
			<point x="734" y="428" type="curve"/>
		</contour>
		<contour>
			<point x="722" y="299" type="curve"/>
			<point x="595" y="288" type="line"/>
			<point x="635" y="82" />
			<point x="701" y="-40" />
			<point x="895" y="-92" type="curve"/>
			<point x="912" y="-53" />
			<point x="949" y="5" />
			<point x="979" y="34" type="curve"/>
			<point x="816" y="63" />
			<point x="751" y="155" />
		</contour>
		<contour>
			<point x="150" y="855" type="line"/>
			<point x="150" y="-95" type="line"/>
			<point x="283" y="-95" type="line"/>
			<point x="283" y="855" type="line"/>
		</contour>
		<contour>
			<point x="55" y="671" type="line"/>
			<point x="49" y="582" />
			<point x="32" y="462" />
			<point x="8" y="391" type="curve"/>
			<point x="118" y="352" type="line"/>
			<point x="141" y="435" />
			<point x="158" y="563" />
			<point x="161" y="657" type="curve"/>
		</contour>
		<contour>
			<point x="251" y="671" type="line"/>
			<point x="275" y="607" />
			<point x="302" y="522" />
			<point x="312" y="471" type="curve"/>
			<point x="414" y="513" type="line"/>
			<point x="403" y="563" />
			<point x="373" y="644" />
			<point x="347" y="706" type="curve"/>
		</contour>
	</outline>
</glyph>
<glyph name="cid17930" format="1" >
	<advance width="1000"/>
	<outline>
		<contour>
			<point x="153" y="855" type="line"/>
			<point x="153" y="-95" type="line"/>
			<point x="291" y="-95" type="line"/>
			<point x="291" y="855" type="line"/>
		</contour>
		<contour>
			<point x="57" y="654" type="line"/>
			<point x="50" y="569" />
			<point x="33" y="456" />
			<point x="11" y="389" type="curve"/>
			<point x="122" y="349" type="line"/>
			<point x="144" y="428" />
			<point x="161" y="550" />
			<point x="164" y="640" type="curve"/>
		</contour>
		<contour>
			<point x="251" y="646" type="line"/>
			<point x="280" y="581" />
			<point x="311" y="496" />
			<point x="321" y="443" type="curve"/>
			<point x="424" y="490" type="line"/>
			<point x="412" y="542" />
			<point x="378" y="624" />
			<point x="347" y="687" type="curve"/>
		</contour>
		<contour>
			<point x="486" y="356" type="line"/>
			<point x="401" y="235" type="line"/>
			<point x="869" y="235" type="line"/>
			<point x="869" y="356" type="line"/>
		</contour>
		<contour>
			<point x="814" y="356" type="line"/>
			<point x="814" y="336" type="line"/>
			<point x="803" y="136" />
			<point x="788" y="58" />
			<point x="771" y="38" type="curve"/>
			<point x="761" y="27" />
			<point x="753" y="25" />
			<point x="739" y="25" type="curve"/>
			<point x="724" y="25" />
			<point x="698" y="25" />
			<point x="667" y="29" type="curve"/>
			<point x="687" y="-5" />
			<point x="700" y="-57" />
			<point x="702" y="-95" type="curve"/>
			<point x="746" y="-96" />
			<point x="785" y="-95" />
			<point x="810" y="-91" type="curve"/>
			<point x="840" y="-86" />
			<point x="863" y="-76" />
			<point x="886" y="-48" type="curve"/>
			<point x="915" y="-13" />
			<point x="932" y="82" />
			<point x="947" y="305" type="curve"/>
			<point x="949" y="321" />
			<point x="951" y="356" />
			<point x="951" y="356" type="curve"/>
		</contour>
		<contour>
			<point x="492" y="460" type="line"/>
			<point x="453" y="375" />
			<point x="379" y="284" />
			<point x="295" y="230" type="curve"/>
			<point x="322" y="210" />
			<point x="365" y="164" />
			<point x="385" y="139" type="curve"/>
			<point x="479" y="206" />
			<point x="561" y="306" />
			<point x="612" y="424" type="curve"/>
		</contour>
		<contour>
			<point x="548" y="290" type="line"/>
			<point x="503" y="199" />
			<point x="417" y="104" />
			<point x="320" y="47" type="curve"/>
			<point x="346" y="27" />
			<point x="386" y="-16" />
			<point x="404" y="-40" type="curve"/>
			<point x="510" y="30" />
			<point x="600" y="135" />
			<point x="657" y="256" type="curve"/>
		</contour>
		<contour>
			<point x="700" y="289" type="line"/>
			<point x="662" y="178" />
			<point x="585" y="63" />
			<point x="492" y="-5" type="curve"/>
			<point x="518" y="-25" />
			<point x="560" y="-69" />
			<point x="579" y="-94" type="curve"/>
			<point x="683" y="-10" />
			<point x="764" y="115" />
			<point x="813" y="258" type="curve"/>
		</contour>
		<contour>
			<point x="551" y="565" type="line"/>
			<point x="767" y="565" type="line"/>
			<point x="767" y="524" type="line"/>
			<point x="551" y="524" type="line"/>
		</contour>
		<contour>
			<point x="551" y="704" type="line"/>
			<point x="767" y="704" type="line"/>
			<point x="767" y="664" type="line"/>
			<point x="551" y="664" type="line"/>
		</contour>
		<contour>
			<point x="415" y="811" type="line"/>
			<point x="415" y="417" type="line"/>
			<point x="910" y="417" type="line"/>
			<point x="910" y="811" type="line"/>
		</contour>
	</outline>
</glyph>
<glyph name="cid17937" format="1" >
	<advance width="1000"/>
	<outline>
		<contour>
			<point x="356" y="822" type="line"/>
			<point x="356" y="-98" type="line"/>
			<point x="490" y="-98" type="line"/>
			<point x="490" y="688" type="line"/>
			<point x="870" y="688" type="line"/>
			<point x="870" y="822" type="line"/>
		</contour>
		<contour>
			<point x="814" y="822" type="line"/>
			<point x="814" y="64" type="line"/>
			<point x="814" y="50" />
			<point x="809" y="45" />
			<point x="795" y="45" type="curve"/>
			<point x="781" y="44" />
			<point x="736" y="44" />
			<point x="699" y="47" type="curve"/>
			<point x="717" y="11" />
			<point x="735" y="-53" />
			<point x="738" y="-91" type="curve"/>
			<point x="811" y="-91" />
			<point x="862" y="-88" />
			<point x="900" y="-65" type="curve"/>
			<point x="938" y="-42" />
			<point x="948" y="-3" />
			<point x="948" y="62" type="curve"/>
			<point x="948" y="822" type="line"/>
		</contour>
		<contour>
			<point x="501" y="646" type="line"/>
			<point x="518" y="600" />
			<point x="537" y="539" />
			<point x="545" y="502" type="curve"/>
			<point x="642" y="537" type="line"/>
			<point x="632" y="572" />
			<point x="610" y="631" />
			<point x="593" y="675" type="curve"/>
		</contour>
		<contour>
			<point x="699" y="680" type="line"/>
			<point x="689" y="626" />
			<point x="666" y="551" />
			<point x="647" y="502" type="curve"/>
			<point x="731" y="471" type="line"/>
			<point x="754" y="515" />
			<point x="781" y="584" />
			<point x="808" y="646" type="curve"/>
		</contour>
		<contour>
			<point x="505" y="512" type="line"/>
			<point x="505" y="410" type="line"/>
			<point x="798" y="410" type="line"/>
			<point x="798" y="512" type="line"/>
		</contour>
		<contour>
			<point x="131" y="855" type="line"/>
			<point x="131" y="-95" type="line"/>
			<point x="261" y="-95" type="line"/>
			<point x="261" y="855" type="line"/>
		</contour>
		<contour>
			<point x="61" y="654" type="line"/>
			<point x="56" y="573" />
			<point x="41" y="459" />
			<point x="20" y="389" type="curve"/>
			<point x="100" y="362" type="line"/>
			<point x="120" y="441" />
			<point x="136" y="561" />
			<point x="138" y="645" type="curve"/>
		</contour>
		<contour>
			<point x="234" y="657" type="line"/>
			<point x="254" y="589" />
			<point x="276" y="499" />
			<point x="284" y="446" type="curve"/>
			<point x="362" y="473" type="line"/>
			<point x="351" y="523" />
			<point x="328" y="611" />
			<point x="306" y="678" type="curve"/>
		</contour>
		<contour>
			<point x="506" y="345" type="line"/>
			<point x="506" y="238" type="line"/>
			<point x="799" y="238" type="line"/>
			<point x="799" y="345" type="line"/>
		</contour>
		<contour>
			<point x="599" y="391" type="line"/>
			<point x="608" y="368" />
			<point x="619" y="337" />
			<point x="623" y="317" type="curve"/>
			<point x="734" y="364" type="line"/>
			<point x="728" y="382" />
			<point x="717" y="411" />
			<point x="706" y="432" type="curve"/>
		</contour>
		<contour>
			<point x="531" y="286" type="line"/>
			<point x="531" y="195" type="line"/>
			<point x="531" y="104" />
			<point x="552" y="67" />
			<point x="650" y="67" type="curve"/>
			<point x="667" y="67" />
			<point x="707" y="67" />
			<point x="723" y="67" type="curve"/>
			<point x="747" y="67" />
			<point x="775" y="68" />
			<point x="790" y="74" type="curve"/>
			<point x="787" y="101" />
			<point x="784" y="141" />
			<point x="782" y="170" type="curve"/>
			<point x="767" y="165" />
			<point x="737" y="163" />
			<point x="720" y="163" type="curve"/>
			<point x="708" y="163" />
			<point x="674" y="163" />
			<point x="663" y="163" type="curve"/>
			<point x="647" y="163" />
			<point x="645" y="172" />
			<point x="645" y="194" type="curve"/>
			<point x="645" y="286" type="line"/>
		</contour>
	</outline>
</glyph>
<glyph name="cid17941" format="1" >
	<advance width="1000"/>
	<outline>
		<contour>
			<point x="148" y="855" type="line"/>
			<point x="148" y="-95" type="line"/>
			<point x="285" y="-95" type="line"/>
			<point x="285" y="855" type="line"/>
		</contour>
		<contour>
			<point x="52" y="660" type="line"/>
			<point x="48" y="575" />
			<point x="34" y="462" />
			<point x="12" y="395" type="curve"/>
			<point x="122" y="355" type="line"/>
			<point x="144" y="435" />
			<point x="158" y="556" />
			<point x="159" y="647" type="curve"/>
		</contour>
		<contour>
			<point x="244" y="669" type="line"/>
			<point x="270" y="605" />
			<point x="300" y="520" />
			<point x="312" y="469" type="curve"/>
			<point x="409" y="513" type="line"/>
			<point x="395" y="562" />
			<point x="362" y="644" />
			<point x="335" y="706" type="curve"/>
		</contour>
		<contour>
			<point x="459" y="860" type="line"/>
			<point x="434" y="771" />
			<point x="388" y="681" />
			<point x="330" y="626" type="curve"/>
			<point x="362" y="607" />
			<point x="417" y="567" />
			<point x="441" y="544" type="curve"/>
			<point x="501" y="611" />
			<point x="559" y="720" />
			<point x="592" y="828" type="curve"/>
		</contour>
		<contour>
			<point x="575" y="719" type="line"/>
			<point x="521" y="581" />
			<point x="423" y="451" />
			<point x="311" y="373" type="curve"/>
			<point x="340" y="356" />
			<point x="391" y="317" />
			<point x="413" y="295" type="curve"/>
			<point x="522" y="385" />
			<point x="629" y="529" />
			<point x="695" y="686" type="curve"/>
		</contour>
		<contour>
			<point x="716" y="707" type="line"/>
			<point x="680" y="569" />
			<point x="611" y="437" />
			<point x="522" y="357" type="curve"/>
			<point x="551" y="341" />
			<point x="602" y="307" />
			<point x="625" y="288" type="curve"/>
			<point x="712" y="379" />
			<point x="788" y="525" />
			<point x="833" y="682" type="curve"/>
		</contour>
		<contour>
			<point x="539" y="766" type="line"/>
			<point x="476" y="655" type="line"/>
			<point x="891" y="655" type="line"/>
			<point x="891" y="766" type="line"/>
		</contour>
		<contour>
			<point x="842" y="766" type="line"/>
			<point x="842" y="744" type="line"/>
			<point x="831" y="507" />
			<point x="816" y="422" />
			<point x="799" y="401" type="curve"/>
			<point x="790" y="389" />
			<point x="783" y="386" />
			<point x="771" y="386" type="curve"/>
			<point x="759" y="386" />
			<point x="743" y="386" />
			<point x="722" y="389" type="curve"/>
			<point x="740" y="355" />
			<point x="752" y="303" />
			<point x="754" y="265" type="curve"/>
			<point x="790" y="264" />
			<point x="822" y="265" />
			<point x="844" y="270" type="curve"/>
			<point x="870" y="276" />
			<point x="891" y="286" />
			<point x="911" y="313" type="curve"/>
			<point x="940" y="350" />
			<point x="956" y="456" />
			<point x="971" y="714" type="curve"/>
			<point x="973" y="731" />
			<point x="974" y="766" />
			<point x="974" y="766" type="curve"/>
		</contour>
		<contour>
			<point x="440" y="270" type="line"/>
			<point x="440" y="76" type="line"/>
			<point x="440" y="-39" />
			<point x="468" y="-77" />
			<point x="591" y="-77" type="curve"/>
			<point x="615" y="-77" />
			<point x="681" y="-77" />
			<point x="706" y="-77" type="curve"/>
			<point x="802" y="-77" />
			<point x="837" y="-40" />
			<point x="851" y="103" type="curve"/>
			<point x="815" y="111" />
			<point x="758" y="132" />
			<point x="732" y="153" type="curve"/>
			<point x="728" y="57" />
			<point x="722" y="43" />
			<point x="693" y="43" type="curve"/>
			<point x="676" y="43" />
			<point x="625" y="43" />
			<point x="611" y="43" type="curve"/>
			<point x="578" y="43" />
			<point x="573" y="46" />
			<point x="573" y="78" type="curve"/>
			<point x="573" y="270" type="line"/>
		</contour>
		<contour>
			<point x="328" y="268" type="line"/>
			<point x="319" y="180" />
			<point x="299" y="77" />
			<point x="274" y="7" type="curve"/>
			<point x="395" y="-31" type="line"/>
			<point x="417" y="35" />
			<point x="433" y="147" />
			<point x="443" y="234" type="curve"/>
		</contour>
		<contour>
			<point x="566" y="254" type="line"/>
			<point x="594" y="206" />
			<point x="626" y="142" />
			<point x="639" y="102" type="curve"/>
			<point x="750" y="160" type="line"/>
			<point x="735" y="199" />
			<point x="699" y="261" />
			<point x="670" y="305" type="curve"/>
		</contour>
		<contour>
			<point x="793" y="234" type="line"/>
			<point x="823" y="157" />
			<point x="854" y="56" />
			<point x="864" y="-6" type="curve"/>
			<point x="986" y="36" type="line"/>
			<point x="973" y="98" />
			<point x="938" y="195" />
			<point x="906" y="269" type="curve"/>
		</contour>
	</outline>
</glyph>
<glyph name="cid17942" format="1" >
	<advance width="1000"/>
	<outline>
		<contour>
			<point x="492" y="658" type="line"/>
			<point x="492" y="538" type="line"/>
			<point x="965" y="538" type="line"/>
			<point x="965" y="658" type="line"/>
		</contour>
		<contour>
			<point x="500" y="184" type="line"/>
			<point x="500" y="84" type="line"/>
			<point x="825" y="84" type="line"/>
			<point x="825" y="184" type="line"/>
		</contour>
		<contour>
			<point x="500" y="52" type="line"/>
			<point x="500" y="-62" type="line"/>
			<point x="825" y="-62" type="line"/>
			<point x="825" y="52" type="line"/>
		</contour>
		<contour>
			<point x="423" y="323" type="line"/>
			<point x="423" y="-96" type="line"/>
			<point x="559" y="-96" type="line"/>
			<point x="559" y="215" type="line"/>
			<point x="779" y="215" type="line"/>
			<point x="779" y="-96" type="line"/>
			<point x="922" y="-96" type="line"/>
			<point x="922" y="323" type="line"/>
		</contour>
		<contour>
			<point x="420" y="827" type="line"/>
			<point x="420" y="396" type="line"/>
			<point x="554" y="396" type="line"/>
			<point x="554" y="762" type="line"/>
			<point x="572" y="765" />
			<point x="581" y="770" />
			<point x="583" y="779" type="curve"/>
		</contour>
		<contour>
			<point x="840" y="854" type="line"/>
			<point x="739" y="827" />
			<point x="582" y="810" />
			<point x="441" y="802" type="curve"/>
			<point x="455" y="773" />
			<point x="471" y="725" />
			<point x="476" y="694" type="curve"/>
			<point x="623" y="698" />
			<point x="798" y="714" />
			<point x="930" y="748" type="curve"/>
		</contour>
		<contour>
			<point x="343" y="455" type="curve"/>
			<point x="371" y="325" type="line"/>
			<point x="465" y="338" />
			<point x="583" y="353" />
			<point x="694" y="369" type="curve"/>
			<point x="689" y="492" type="line"/>
			<point x="563" y="477" />
			<point x="433" y="463" />
		</contour>
		<contour>
			<point x="639" y="728" type="line"/>
			<point x="651" y="493" />
			<point x="731" y="317" />
			<point x="863" y="317" type="curve"/>
			<point x="937" y="317" />
			<point x="976" y="339" />
			<point x="993" y="455" type="curve"/>
			<point x="961" y="466" />
			<point x="918" y="488" />
			<point x="892" y="513" type="curve"/>
			<point x="889" y="469" />
			<point x="884" y="448" />
			<point x="871" y="448" type="curve"/>
			<point x="832" y="447" />
			<point x="783" y="582" />
			<point x="778" y="728" type="curve"/>
		</contour>
		<contour>
			<point x="151" y="855" type="line"/>
			<point x="151" y="-95" type="line"/>
			<point x="291" y="-95" type="line"/>
			<point x="291" y="855" type="line"/>
		</contour>
		<contour>
			<point x="59" y="654" type="line"/>
			<point x="58" y="563" />
			<point x="44" y="452" />
			<point x="14" y="389" type="curve"/>
			<point x="107" y="348" type="line"/>
			<point x="141" y="425" />
			<point x="155" y="543" />
			<point x="153" y="642" type="curve"/>
		</contour>
		<contour>
			<point x="255" y="691" type="line"/>
			<point x="287" y="626" />
			<point x="317" y="541" />
			<point x="325" y="488" type="curve"/>
			<point x="414" y="529" type="line"/>
			<point x="405" y="582" />
			<point x="372" y="664" />
			<point x="338" y="727" type="curve"/>
		</contour>
	</outline>
</glyph>
<glyph name="cid17945" format="1" >
	<advance width="1000"/>
	<outline>
		<contour>
			<point x="738" y="770" type="line"/>
			<point x="780" y="712" />
			<point x="824" y="634" />
			<point x="840" y="583" type="curve"/>
			<point x="959" y="641" type="line"/>
			<point x="940" y="693" />
			<point x="892" y="767" />
			<point x="849" y="822" type="curve"/>
		</contour>
		<contour>
			<point x="585" y="856" type="line"/>
			<point x="585" y="478" type="line"/>
			<point x="732" y="478" type="line"/>
			<point x="732" y="856" type="line"/>
		</contour>
		<contour>
			<point x="540" y="396" type="line"/>
			<point x="540" y="54" type="line"/>
			<point x="643" y="54" type="line"/>
			<point x="643" y="396" type="line"/>
		</contour>
		<contour>
			<point x="816" y="572" type="line"/>
			<point x="816" y="50" type="line"/>
			<point x="816" y="37" />
			<point x="811" y="33" />
			<point x="797" y="32" type="curve"/>
			<point x="783" y="32" />
			<point x="733" y="32" />
			<point x="694" y="34" type="curve"/>
			<point x="711" y="0" />
			<point x="728" y="-56" />
			<point x="733" y="-93" type="curve"/>
			<point x="806" y="-93" />
			<point x="859" y="-91" />
			<point x="899" y="-70" type="curve"/>
			<point x="939" y="-50" />
			<point x="950" y="-15" />
			<point x="950" y="48" type="curve"/>
			<point x="950" y="572" type="line"/>
		</contour>
		<contour>
			<point x="448" y="812" type="line"/>
			<point x="429" y="751" />
			<point x="394" y="686" />
			<point x="353" y="644" type="curve"/>
			<point x="384" y="628" />
			<point x="439" y="593" />
			<point x="465" y="571" type="curve"/>
			<point x="508" y="621" />
			<point x="553" y="703" />
			<point x="578" y="780" type="curve"/>
		</contour>
		<contour>
			<point x="376" y="572" type="line"/>
			<point x="376" y="-95" type="line"/>
			<point x="508" y="-95" type="line"/>
			<point x="508" y="449" type="line"/>
			<point x="892" y="449" type="line"/>
			<point x="892" y="572" type="line"/>
		</contour>
		<contour>
			<point x="575" y="396" type="line"/>
			<point x="575" y="295" type="line"/>
			<point x="678" y="295" type="line"/>
			<point x="678" y="216" type="line"/>
			<point x="575" y="216" type="line"/>
			<point x="575" y="114" type="line"/>
			<point x="784" y="114" type="line"/>
			<point x="784" y="396" type="line"/>
		</contour>
		<contour>
			<point x="145" y="855" type="line"/>
			<point x="145" y="-95" type="line"/>
			<point x="282" y="-95" type="line"/>
			<point x="282" y="855" type="line"/>
		</contour>
		<contour>
			<point x="59" y="654" type="line"/>
			<point x="58" y="563" />
			<point x="44" y="452" />
			<point x="14" y="389" type="curve"/>
			<point x="102" y="350" type="line"/>
			<point x="136" y="426" />
			<point x="150" y="544" />
			<point x="148" y="643" type="curve"/>
		</contour>
		<contour>
			<point x="244" y="653" type="line"/>
			<point x="272" y="586" />
			<point x="296" y="499" />
			<point x="301" y="444" type="curve"/>
			<point x="388" y="478" type="line"/>
			<point x="382" y="532" />
			<point x="355" y="617" />
			<point x="325" y="682" type="curve"/>
		</contour>
	</outline>
</glyph>
<glyph name="cid17948" format="1" >
	<advance width="1000"/>
	<outline>
		<contour>
			<point x="558" y="827" type="line"/>
			<point x="503" y="799" />
			<point x="417" y="770" />
			<point x="338" y="752" type="curve"/>
			<point x="354" y="724" />
			<point x="372" y="677" />
			<point x="378" y="648" type="curve"/>
			<point x="467" y="663" />
			<point x="573" y="688" />
			<point x="660" y="723" type="curve"/>
		</contour>
		<contour>
			<point x="419" y="539" type="line"/>
			<point x="419" y="415" type="line"/>
			<point x="667" y="415" type="line"/>
			<point x="667" y="539" type="line"/>
		</contour>
		<contour>
			<point x="702" y="859" type="line"/>
			<point x="684" y="748" />
			<point x="648" y="636" />
			<point x="594" y="566" type="curve"/>
			<point x="621" y="553" />
			<point x="670" y="522" />
			<point x="691" y="505" type="curve"/>
			<point x="746" y="584" />
			<point x="790" y="710" />
			<point x="814" y="838" type="curve"/>
		</contour>
		<contour>
			<point x="723" y="698" type="line"/>
			<point x="702" y="593" type="line"/>
			<point x="922" y="593" type="line"/>
			<point x="922" y="698" type="line"/>
		</contour>
		<contour>
			<point x="724" y="543" type="line"/>
			<point x="724" y="366" type="line"/>
			<point x="724" y="287" />
			<point x="696" y="111" />
			<point x="536" y="-24" type="curve"/>
			<point x="563" y="-42" />
			<point x="604" y="-76" />
			<point x="623" y="-100" type="curve"/>
			<point x="790" y="54" />
			<point x="834" y="322" />
			<point x="834" y="365" type="curve"/>
			<point x="834" y="543" type="line"/>
		</contour>
		<contour>
			<point x="826" y="349" type="curve"/>
			<point x="758" y="274" type="line"/>
			<point x="773" y="172" />
			<point x="811" y="0" />
			<point x="906" y="-83" type="curve"/>
			<point x="922" y="-49" />
			<point x="961" y="2" />
			<point x="986" y="25" type="curve"/>
			<point x="881" y="95" />
			<point x="842" y="237" />
		</contour>
		<contour>
			<point x="496" y="459" type="line"/>
			<point x="496" y="36" type="line"/>
			<point x="612" y="36" type="line"/>
			<point x="612" y="459" type="line"/>
		</contour>
		<contour>
			<point x="889" y="698" type="line"/>
			<point x="889" y="683" type="line"/>
			<point x="886" y="622" />
			<point x="877" y="545" />
			<point x="866" y="497" type="curve"/>
			<point x="940" y="468" type="line"/>
			<point x="959" y="523" />
			<point x="976" y="609" />
			<point x="983" y="685" type="curve"/>
			<point x="918" y="702" type="line"/>
			<point x="903" y="698" type="line"/>
		</contour>
		<contour>
			<point x="133" y="855" type="line"/>
			<point x="133" y="-95" type="line"/>
			<point x="257" y="-95" type="line"/>
			<point x="257" y="855" type="line"/>
		</contour>
		<contour>
			<point x="48" y="654" type="line"/>
			<point x="47" y="569" />
			<point x="35" y="456" />
			<point x="13" y="389" type="curve"/>
			<point x="97" y="357" type="line"/>
			<point x="121" y="435" />
			<point x="132" y="555" />
			<point x="131" y="644" type="curve"/>
		</contour>
		<contour>
			<point x="233" y="657" type="line"/>
			<point x="257" y="588" />
			<point x="275" y="500" />
			<point x="275" y="446" type="curve"/>
			<point x="349" y="470" type="line"/>
			<point x="349" y="524" />
			<point x="329" y="609" />
			<point x="303" y="677" type="curve"/>
		</contour>
		<contour>
			<point x="337" y="752" type="line"/>
			<point x="337" y="343" type="line"/>
			<point x="337" y="266" />
			<point x="328" y="105" />
			<point x="254" y="-22" type="curve"/>
			<point x="283" y="-39" />
			<point x="333" y="-73" />
			<point x="354" y="-98" type="curve"/>
			<point x="429" y="27" />
			<point x="455" y="316" />
			<point x="455" y="343" type="curve"/>
			<point x="455" y="752" type="line"/>
		</contour>
	</outline>
</glyph>
<glyph name="cid17949" format="1" >
	<advance width="1000"/>
	<outline>
		<contour>
			<point x="493" y="856" type="line"/>
			<point x="457" y="713" />
			<point x="389" y="570" />
			<point x="304" y="485" type="curve"/>
			<point x="338" y="465" />
			<point x="400" y="419" />
			<point x="426" y="394" type="curve"/>
			<point x="512" y="495" />
			<point x="591" y="658" />
			<point x="638" y="823" type="curve"/>
		</contour>
		<contour>
			<point x="506" y="93" type="line"/>
			<point x="506" y="-41" type="line"/>
			<point x="975" y="-41" type="line"/>
			<point x="975" y="93" type="line"/>
		</contour>
		<contour>
			<point x="518" y="291" type="line"/>
			<point x="518" y="160" type="line"/>
			<point x="937" y="160" type="line"/>
			<point x="937" y="291" type="line"/>
		</contour>
		<contour>
			<point x="518" y="487" type="line"/>
			<point x="518" y="356" type="line"/>
			<point x="937" y="356" type="line"/>
			<point x="937" y="487" type="line"/>
		</contour>
		<contour>
			<point x="733" y="852" type="line"/>
			<point x="718" y="778" />
			<point x="687" y="682" />
			<point x="659" y="617" type="curve"/>
			<point x="778" y="579" type="line"/>
			<point x="811" y="637" />
			<point x="851" y="726" />
			<point x="889" y="811" type="curve"/>
		</contour>
		<contour>
			<point x="565" y="688" type="line"/>
			<point x="564" y="688" type="line"/>
			<point x="425" y="547" type="line"/>
			<point x="425" y="-94" type="line"/>
			<point x="565" y="-94" type="line"/>
			<point x="565" y="549" type="line"/>
			<point x="959" y="549" type="line"/>
			<point x="959" y="688" type="line"/>
		</contour>
		<contour>
			<point x="669" y="596" type="line"/>
			<point x="669" y="2" type="line"/>
			<point x="808" y="2" type="line"/>
			<point x="808" y="596" type="line"/>
		</contour>
		<contour>
			<point x="151" y="855" type="line"/>
			<point x="151" y="-95" type="line"/>
			<point x="291" y="-95" type="line"/>
			<point x="291" y="855" type="line"/>
		</contour>
		<contour>
			<point x="59" y="654" type="line"/>
			<point x="58" y="563" />
			<point x="44" y="452" />
			<point x="14" y="389" type="curve"/>
			<point x="107" y="348" type="line"/>
			<point x="141" y="425" />
			<point x="155" y="543" />
			<point x="153" y="642" type="curve"/>
		</contour>
		<contour>
			<point x="255" y="701" type="line"/>
			<point x="283" y="646" />
			<point x="308" y="573" />
			<point x="315" y="527" type="curve"/>
			<point x="407" y="569" type="line"/>
			<point x="399" y="615" />
			<point x="371" y="685" />
			<point x="341" y="738" type="curve"/>
		</contour>
	</outline>
</glyph>
<glyph name="cid17950" format="1" >
	<advance width="1000"/>
	<outline>
		<contour>
			<point x="462" y="487" type="line"/>
			<point x="462" y="360" type="line"/>
			<point x="931" y="360" type="line"/>
			<point x="931" y="487" type="line"/>
		</contour>
		<contour>
			<point x="465" y="293" type="line"/>
			<point x="465" y="166" type="line"/>
			<point x="929" y="166" type="line"/>
			<point x="929" y="293" type="line"/>
		</contour>
		<contour>
			<point x="469" y="94" type="line"/>
			<point x="469" y="-38" type="line"/>
			<point x="974" y="-38" type="line"/>
			<point x="974" y="94" type="line"/>
		</contour>
		<contour>
			<point x="489" y="849" type="line"/>
			<point x="445" y="700" />
			<point x="365" y="554" />
			<point x="270" y="466" type="curve"/>
			<point x="300" y="440" />
			<point x="352" y="384" />
			<point x="372" y="356" type="curve"/>
			<point x="476" y="464" />
			<point x="570" y="639" />
			<point x="627" y="814" type="curve"/>
		</contour>
		<contour>
			<point x="560" y="685" type="line"/>
			<point x="532" y="685" type="line"/>
			<point x="421" y="572" type="line"/>
			<point x="421" y="-97" type="line"/>
			<point x="560" y="-97" type="line"/>
			<point x="560" y="553" type="line"/>
			<point x="963" y="553" type="line"/>
			<point x="963" y="685" type="line"/>
		</contour>
		<contour>
			<point x="671" y="617" type="line"/>
			<point x="671" y="23" type="line"/>
			<point x="806" y="23" type="line"/>
			<point x="806" y="617" type="line"/>
		</contour>
		<contour>
			<point x="642" y="797" type="line"/>
			<point x="666" y="753" />
			<point x="691" y="693" />
			<point x="700" y="655" type="curve"/>
			<point x="831" y="712" type="line"/>
			<point x="819" y="750" />
			<point x="793" y="806" />
			<point x="767" y="847" type="curve"/>
		</contour>
		<contour>
			<point x="139" y="855" type="line"/>
			<point x="139" y="-95" type="line"/>
			<point x="277" y="-95" type="line"/>
			<point x="277" y="855" type="line"/>
		</contour>
		<contour>
			<point x="48" y="654" type="line"/>
			<point x="43" y="571" />
			<point x="29" y="458" />
			<point x="9" y="389" type="curve"/>
			<point x="116" y="353" type="line"/>
			<point x="134" y="432" />
			<point x="149" y="554" />
			<point x="150" y="641" type="curve"/>
		</contour>
		<contour>
			<point x="237" y="688" type="line"/>
			<point x="259" y="641" />
			<point x="285" y="579" />
			<point x="297" y="541" type="curve"/>
			<point x="394" y="591" type="line"/>
			<point x="380" y="626" />
			<point x="351" y="686" />
			<point x="328" y="730" type="curve"/>
		</contour>
	</outline>
</glyph>
<glyph name="cid17957" format="1" >
	<advance width="1000"/>
	<outline>
		<contour>
			<point x="302" y="206" type="line"/>
			<point x="302" y="68" type="line"/>
			<point x="302" y="-45" />
			<point x="331" y="-83" />
			<point x="462" y="-83" type="curve"/>
			<point x="488" y="-83" />
			<point x="562" y="-83" />
			<point x="589" y="-83" type="curve"/>
			<point x="684" y="-83" />
			<point x="721" y="-53" />
			<point x="736" y="67" type="curve"/>
			<point x="699" y="75" />
			<point x="641" y="95" />
			<point x="615" y="115" type="curve"/>
			<point x="610" y="48" />
			<point x="604" y="38" />
			<point x="575" y="38" type="curve"/>
			<point x="555" y="38" />
			<point x="497" y="38" />
			<point x="481" y="38" type="curve"/>
			<point x="445" y="38" />
			<point x="439" y="41" />
			<point x="439" y="70" type="curve"/>
			<point x="439" y="206" type="line"/>
		</contour>
		<contour>
			<point x="401" y="219" type="line"/>
			<point x="449" y="185" />
			<point x="505" y="134" />
			<point x="529" y="98" type="curve"/>
			<point x="628" y="177" type="line"/>
			<point x="600" y="213" />
			<point x="541" y="261" />
			<point x="493" y="291" type="curve"/>
		</contour>
		<contour>
			<point x="667" y="150" type="line"/>
			<point x="728" y="86" />
			<point x="789" y="-2" />
			<point x="810" y="-62" type="curve"/>
			<point x="931" y="0" type="line"/>
			<point x="906" y="64" />
			<point x="841" y="147" />
			<point x="779" y="207" type="curve"/>
		</contour>
		<contour>
			<point x="171" y="185" type="line"/>
			<point x="150" y="114" />
			<point x="108" y="47" />
			<point x="52" y="5" type="curve"/>
			<point x="166" y="-73" type="line"/>
			<point x="231" y="-20" />
			<point x="268" y="60" />
			<point x="293" y="141" type="curve"/>
		</contour>
		<contour>
			<point x="593" y="657" type="line"/>
			<point x="593" y="543" type="line"/>
			<point x="796" y="543" type="line"/>
			<point x="796" y="657" type="line"/>
		</contour>
		<contour>
			<point x="176" y="657" type="line"/>
			<point x="176" y="543" type="line"/>
			<point x="384" y="543" type="line"/>
			<point x="384" y="657" type="line"/>
		</contour>
		<contour>
			<point x="334" y="836" type="line"/>
			<point x="287" y="809" />
			<point x="214" y="779" />
			<point x="147" y="759" type="curve"/>
			<point x="161" y="734" />
			<point x="178" y="692" />
			<point x="184" y="666" type="curve"/>
			<point x="260" y="684" />
			<point x="352" y="710" />
			<point x="429" y="742" type="curve"/>
		</contour>
		<contour>
			<point x="109" y="807" type="line"/>
			<point x="109" y="424" type="line"/>
			<point x="246" y="424" type="line"/>
			<point x="246" y="770" type="line"/>
		</contour>
		<contour>
			<point x="559" y="452" type="curve"/>
			<point x="438" y="424" type="line"/>
			<point x="527" y="264" />
			<point x="663" y="184" />
			<point x="893" y="155" type="curve"/>
			<point x="910" y="194" />
			<point x="947" y="252" />
			<point x="977" y="282" type="curve"/>
			<point x="768" y="296" />
			<point x="627" y="347" />
		</contour>
		<contour>
			<point x="109" y="496" type="line"/>
			<point x="109" y="376" type="line"/>
			<point x="892" y="376" type="line"/>
			<point x="892" y="818" type="line"/>
			<point x="589" y="818" type="line"/>
			<point x="589" y="699" type="line"/>
			<point x="751" y="699" type="line"/>
			<point x="751" y="496" type="line"/>
		</contour>
		<contour>
			<point x="422" y="855" type="line"/>
			<point x="422" y="583" type="line"/>
			<point x="422" y="452" />
			<point x="377" y="333" />
			<point x="21" y="276" type="curve"/>
			<point x="47" y="249" />
			<point x="88" y="191" />
			<point x="104" y="161" type="curve"/>
			<point x="492" y="230" />
			<point x="559" y="394" />
			<point x="559" y="581" type="curve"/>
			<point x="559" y="855" type="line"/>
		</contour>
	</outline>
</glyph>
<glyph name="cid17959" format="1" >
	<advance width="1000"/>
	<outline>
		<contour>
			<point x="428" y="830" type="line"/>
			<point x="428" y="195" type="line"/>
			<point x="569" y="195" type="line"/>
			<point x="569" y="710" type="line"/>
			<point x="770" y="710" type="line"/>
			<point x="770" y="195" type="line"/>
			<point x="919" y="195" type="line"/>
			<point x="919" y="830" type="line"/>
		</contour>
		<contour>
			<point x="517" y="676" type="line"/>
			<point x="517" y="573" type="line"/>
			<point x="851" y="573" type="line"/>
			<point x="851" y="676" type="line"/>
		</contour>
		<contour>
			<point x="517" y="536" type="line"/>
			<point x="517" y="433" type="line"/>
			<point x="851" y="433" type="line"/>
			<point x="851" y="536" type="line"/>
		</contour>
		<contour>
			<point x="517" y="395" type="line"/>
			<point x="517" y="292" type="line"/>
			<point x="851" y="292" type="line"/>
			<point x="851" y="395" type="line"/>
		</contour>
		<contour>
			<point x="345" y="253" type="line"/>
			<point x="345" y="126" type="line"/>
			<point x="976" y="126" type="line"/>
			<point x="976" y="253" type="line"/>
		</contour>
		<contour>
			<point x="685" y="85" type="line"/>
			<point x="740" y="30" />
			<point x="809" y="-47" />
			<point x="839" y="-96" type="curve"/>
			<point x="976" y="-32" type="line"/>
			<point x="941" y="19" />
			<point x="868" y="92" />
			<point x="813" y="142" type="curve"/>
		</contour>
		<contour>
			<point x="497" y="134" type="line"/>
			<point x="458" y="83" />
			<point x="387" y="32" />
			<point x="318" y="0" type="curve"/>
			<point x="353" y="-22" />
			<point x="411" y="-70" />
			<point x="440" y="-98" type="curve"/>
			<point x="509" y="-55" />
			<point x="593" y="15" />
			<point x="643" y="85" type="curve"/>
		</contour>
		<contour>
			<point x="152" y="855" type="line"/>
			<point x="152" y="-95" type="line"/>
			<point x="297" y="-95" type="line"/>
			<point x="297" y="855" type="line"/>
		</contour>
		<contour>
			<point x="50" y="654" type="line"/>
			<point x="47" y="567" />
			<point x="33" y="455" />
			<point x="9" y="389" type="curve"/>
			<point x="121" y="347" type="line"/>
			<point x="145" y="426" />
			<point x="160" y="547" />
			<point x="159" y="640" type="curve"/>
		</contour>
		<contour>
			<point x="262" y="646" type="line"/>
			<point x="288" y="581" />
			<point x="319" y="495" />
			<point x="332" y="443" type="curve"/>
			<point x="440" y="492" type="line"/>
			<point x="424" y="542" />
			<point x="390" y="626" />
			<point x="363" y="688" type="curve"/>
		</contour>
	</outline>
</glyph>
<glyph name="cid17960" format="1" >
	<advance width="1000"/>
	<outline>
		<contour>
			<point x="528" y="855" type="line"/>
			<point x="506" y="791" />
			<point x="465" y="706" />
			<point x="429" y="650" type="curve"/>
			<point x="548" y="617" type="line"/>
			<point x="586" y="668" />
			<point x="634" y="745" />
			<point x="676" y="822" type="curve"/>
		</contour>
		<contour>
			<point x="364" y="693" type="curve"/>
			<point x="382" y="576" type="line"/>
			<point x="505" y="582" />
			<point x="674" y="590" />
			<point x="833" y="600" type="curve"/>
			<point x="835" y="706" type="line"/>
			<point x="664" y="700" />
			<point x="483" y="695" />
		</contour>
		<contour>
			<point x="706" y="742" type="line"/>
			<point x="762" y="683" />
			<point x="824" y="600" />
			<point x="848" y="546" type="curve"/>
			<point x="964" y="605" type="line"/>
			<point x="935" y="662" />
			<point x="869" y="740" />
			<point x="813" y="795" type="curve"/>
		</contour>
		<contour>
			<point x="330" y="541" type="line"/>
			<point x="330" y="427" type="line"/>
			<point x="961" y="427" type="line"/>
			<point x="961" y="541" type="line"/>
		</contour>
		<contour>
			<point x="533" y="615" type="line"/>
			<point x="500" y="477" />
			<point x="413" y="378" />
			<point x="282" y="323" type="curve"/>
			<point x="312" y="303" />
			<point x="364" y="258" />
			<point x="385" y="235" type="curve"/>
			<point x="517" y="306" />
			<point x="617" y="424" />
			<point x="664" y="594" type="curve"/>
		</contour>
		<contour>
			<point x="767" y="496" type="curve"/>
			<point x="657" y="459" type="line"/>
			<point x="710" y="364" />
			<point x="797" y="278" />
			<point x="900" y="235" type="curve"/>
			<point x="919" y="267" />
			<point x="958" y="315" />
			<point x="987" y="339" type="curve"/>
			<point x="894" y="369" />
			<point x="810" y="429" />
		</contour>
		<contour>
			<point x="641" y="392" type="line"/>
			<point x="596" y="353" />
			<point x="504" y="323" />
			<point x="422" y="307" type="curve"/>
			<point x="451" y="282" />
			<point x="483" y="242" />
			<point x="500" y="213" type="curve"/>
			<point x="599" y="240" />
			<point x="694" y="283" />
			<point x="755" y="349" type="curve"/>
		</contour>
		<contour>
			<point x="722" y="293" type="line"/>
			<point x="657" y="233" />
			<point x="524" y="188" />
			<point x="402" y="166" type="curve"/>
			<point x="431" y="139" />
			<point x="463" y="96" />
			<point x="481" y="65" type="curve"/>
			<point x="624" y="99" />
			<point x="759" y="153" />
			<point x="848" y="241" type="curve"/>
		</contour>
		<contour>
			<point x="796" y="177" type="line"/>
			<point x="705" y="95" />
			<point x="520" y="45" />
			<point x="349" y="22" type="curve"/>
			<point x="379" y="-10" />
			<point x="411" y="-59" />
			<point x="427" y="-95" type="curve"/>
			<point x="621" y="-57" />
			<point x="804" y="5" />
			<point x="925" y="116" type="curve"/>
		</contour>
		<contour>
			<point x="145" y="855" type="line"/>
			<point x="145" y="-95" type="line"/>
			<point x="282" y="-95" type="line"/>
			<point x="282" y="855" type="line"/>
		</contour>
		<contour>
			<point x="59" y="654" type="line"/>
			<point x="58" y="563" />
			<point x="44" y="452" />
			<point x="14" y="389" type="curve"/>
			<point x="102" y="350" type="line"/>
			<point x="136" y="426" />
			<point x="150" y="544" />
			<point x="148" y="643" type="curve"/>
		</contour>
		<contour>
			<point x="254" y="668" type="line"/>
			<point x="276" y="617" />
			<point x="294" y="550" />
			<point x="298" y="508" type="curve"/>
			<point x="384" y="541" type="line"/>
			<point x="380" y="583" />
			<point x="359" y="647" />
			<point x="335" y="697" type="curve"/>
		</contour>
	</outline>
</glyph>
<glyph name="cid17961" format="1" >
	<advance width="1000"/>
	<outline>
		<contour>
			<point x="679" y="756" type="line"/>
			<point x="732" y="693" />
			<point x="806" y="605" />
			<point x="840" y="553" type="curve"/>
			<point x="947" y="624" type="line"/>
			<point x="909" y="675" />
			<point x="832" y="758" />
			<point x="780" y="817" type="curve"/>
		</contour>
		<contour>
			<point x="401" y="573" type="line"/>
			<point x="438" y="587" />
			<point x="491" y="592" />
			<point x="863" y="619" type="curve"/>
			<point x="857" y="644" />
			<point x="850" y="689" />
			<point x="848" y="720" type="curve"/>
			<point x="461" y="699" type="line"/>
			<point x="398" y="662" type="line"/>
		</contour>
		<contour>
			<point x="401" y="573" type="curve"/>
			<point x="401" y="594" />
			<point x="448" y="629" />
			<point x="448" y="629" type="curve"/>
			<point x="448" y="633" type="line"/>
			<point x="534" y="673" />
			<point x="635" y="743" />
			<point x="706" y="807" type="curve"/>
			<point x="564" y="865" type="line"/>
			<point x="521" y="809" />
			<point x="444" y="756" />
			<point x="421" y="739" type="curve"/>
			<point x="397" y="722" />
			<point x="377" y="710" />
			<point x="357" y="705" type="curve"/>
			<point x="372" y="667" />
			<point x="394" y="600" />
		</contour>
		<contour>
			<point x="330" y="568" type="line"/>
			<point x="330" y="454" type="line"/>
			<point x="961" y="454" type="line"/>
			<point x="961" y="568" type="line"/>
		</contour>
		<contour>
			<point x="531" y="642" type="line"/>
			<point x="494" y="498" />
			<point x="403" y="392" />
			<point x="267" y="333" type="curve"/>
			<point x="296" y="314" />
			<point x="349" y="269" />
			<point x="370" y="245" type="curve"/>
			<point x="506" y="320" />
			<point x="611" y="444" />
			<point x="661" y="619" type="curve"/>
		</contour>
		<contour>
			<point x="767" y="523" type="curve"/>
			<point x="657" y="487" type="line"/>
			<point x="710" y="385" />
			<point x="796" y="293" />
			<point x="900" y="245" type="curve"/>
			<point x="919" y="277" />
			<point x="958" y="325" />
			<point x="987" y="349" type="curve"/>
			<point x="893" y="383" />
			<point x="809" y="450" />
		</contour>
		<contour>
			<point x="650" y="414" type="line"/>
			<point x="593" y="368" />
			<point x="479" y="334" />
			<point x="378" y="317" type="curve"/>
			<point x="407" y="291" />
			<point x="438" y="250" />
			<point x="455" y="220" type="curve"/>
			<point x="572" y="249" />
			<point x="689" y="295" />
			<point x="763" y="367" type="curve"/>
		</contour>
		<contour>
			<point x="731" y="302" type="line"/>
			<point x="655" y="237" />
			<point x="500" y="192" />
			<point x="359" y="171" type="curve"/>
			<point x="388" y="143" />
			<point x="419" y="99" />
			<point x="435" y="67" type="curve"/>
			<point x="598" y="100" />
			<point x="753" y="155" />
			<point x="856" y="247" type="curve"/>
		</contour>
		<contour>
			<point x="805" y="177" type="line"/>
			<point x="708" y="94" />
			<point x="510" y="44" />
			<point x="328" y="22" type="curve"/>
			<point x="358" y="-11" />
			<point x="389" y="-60" />
			<point x="404" y="-96" type="curve"/>
			<point x="609" y="-60" />
			<point x="805" y="1" />
			<point x="933" y="114" type="curve"/>
		</contour>
		<contour>
			<point x="130" y="855" type="line"/>
			<point x="130" y="-95" type="line"/>
			<point x="268" y="-95" type="line"/>
			<point x="268" y="855" type="line"/>
		</contour>
		<contour>
			<point x="48" y="654" type="line"/>
			<point x="45" y="568" />
			<point x="31" y="455" />
			<point x="7" y="389" type="curve"/>
			<point x="107" y="351" type="line"/>
			<point x="132" y="429" />
			<point x="146" y="550" />
			<point x="146" y="642" type="curve"/>
		</contour>
		<contour>
			<point x="227" y="668" type="line"/>
			<point x="250" y="612" />
			<point x="279" y="537" />
			<point x="291" y="492" type="curve"/>
			<point x="385" y="536" type="line"/>
			<point x="371" y="579" />
			<point x="340" y="652" />
			<point x="315" y="705" type="curve"/>
		</contour>
	</outline>
</glyph>
<glyph name="cid17962" format="1" >
	<advance width="1000"/>
	<outline>
		<contour>
			<point x="216" y="854" type="line"/>
			<point x="179" y="806" />
			<point x="105" y="748" />
			<point x="40" y="713" type="curve"/>
			<point x="63" y="690" />
			<point x="100" y="644" />
			<point x="119" y="617" type="curve"/>
			<point x="195" y="661" />
			<point x="281" y="734" />
			<point x="341" y="805" type="curve"/>
		</contour>
		<contour>
			<point x="232" y="689" type="line"/>
			<point x="192" y="619" />
			<point x="106" y="534" />
			<point x="24" y="486" type="curve"/>
			<point x="45" y="460" />
			<point x="78" y="409" />
			<point x="94" y="380" type="curve"/>
			<point x="193" y="442" />
			<point x="293" y="544" />
			<point x="358" y="643" type="curve"/>
		</contour>
		<contour>
			<point x="144" y="490" type="line"/>
			<point x="144" y="224" type="line"/>
			<point x="282" y="224" type="line"/>
			<point x="282" y="624" type="line"/>
			<point x="280" y="626" type="line"/>
		</contour>
		<contour>
			<point x="251" y="197" type="line"/>
			<point x="251" y="75" type="line"/>
			<point x="251" y="-43" />
			<point x="291" y="-81" />
			<point x="449" y="-81" type="curve"/>
			<point x="482" y="-81" />
			<point x="588" y="-81" />
			<point x="622" y="-81" type="curve"/>
			<point x="740" y="-81" />
			<point x="781" y="-49" />
			<point x="798" y="78" type="curve"/>
			<point x="758" y="85" />
			<point x="696" y="106" />
			<point x="666" y="127" type="curve"/>
			<point x="660" y="55" />
			<point x="651" y="43" />
			<point x="609" y="43" type="curve"/>
			<point x="578" y="43" />
			<point x="491" y="43" />
			<point x="467" y="43" type="curve"/>
			<point x="413" y="43" />
			<point x="403" y="46" />
			<point x="403" y="77" type="curve"/>
			<point x="403" y="197" type="line"/>
		</contour>
		<contour>
			<point x="411" y="216" type="line"/>
			<point x="461" y="170" />
			<point x="520" y="105" />
			<point x="544" y="61" type="curve"/>
			<point x="663" y="141" type="line"/>
			<point x="635" y="187" />
			<point x="572" y="247" />
			<point x="522" y="289" type="curve"/>
		</contour>
		<contour>
			<point x="740" y="166" type="line"/>
			<point x="773" y="97" />
			<point x="812" y="6" />
			<point x="827" y="-50" type="curve"/>
			<point x="962" y="5" type="line"/>
			<point x="945" y="61" />
			<point x="902" y="149" />
			<point x="866" y="214" type="curve"/>
		</contour>
		<contour>
			<point x="108" y="202" type="line"/>
			<point x="86" y="136" />
			<point x="49" y="60" />
			<point x="15" y="7" type="curve"/>
			<point x="151" y="-60" type="line"/>
			<point x="180" y="-3" />
			<point x="213" y="80" />
			<point x="237" y="145" type="curve"/>
		</contour>
		<contour>
			<point x="361" y="812" type="line"/>
			<point x="361" y="690" type="line"/>
			<point x="951" y="690" type="line"/>
			<point x="951" y="812" type="line"/>
		</contour>
		<contour>
			<point x="693" y="590" type="line"/>
			<point x="693" y="469" type="line"/>
			<point x="932" y="469" type="line"/>
			<point x="932" y="590" type="line"/>
		</contour>
		<contour>
			<point x="318" y="365" type="line"/>
			<point x="318" y="241" type="line"/>
			<point x="971" y="241" type="line"/>
			<point x="971" y="365" type="line"/>
		</contour>
		<contour>
			<point x="402" y="644" type="line"/>
			<point x="402" y="315" type="line"/>
			<point x="534" y="315" type="line"/>
			<point x="534" y="644" type="line"/>
		</contour>
		<contour>
			<point x="607" y="776" type="line"/>
			<point x="607" y="321" type="line"/>
			<point x="752" y="321" type="line"/>
			<point x="752" y="776" type="line"/>
		</contour>
	</outline>
</glyph>
<glyph name="cid17965" format="1" >
	<advance width="1000"/>
	<outline>
		<contour>
			<point x="486" y="624" type="line"/>
			<point x="486" y="513" type="line"/>
			<point x="946" y="513" type="line"/>
			<point x="946" y="624" type="line"/>
		</contour>
		<contour>
			<point x="651" y="683" type="line"/>
			<point x="651" y="462" type="line"/>
			<point x="651" y="346" />
			<point x="629" y="223" />
			<point x="455" y="144" type="curve"/>
			<point x="481" y="122" />
			<point x="521" y="74" />
			<point x="538" y="45" type="curve"/>
			<point x="746" y="143" />
			<point x="775" y="305" />
			<point x="775" y="460" type="curve"/>
			<point x="775" y="683" type="line"/>
		</contour>
		<contour>
			<point x="651" y="256" type="line"/>
			<point x="728" y="195" />
			<point x="831" y="106" />
			<point x="878" y="49" type="curve"/>
			<point x="958" y="144" type="line"/>
			<point x="908" y="199" />
			<point x="801" y="282" />
			<point x="725" y="339" type="curve"/>
		</contour>
		<contour>
			<point x="326" y="822" type="line"/>
			<point x="326" y="-66" type="line"/>
			<point x="454" y="-66" type="line"/>
			<point x="454" y="695" type="line"/>
			<point x="963" y="695" type="line"/>
			<point x="963" y="822" type="line"/>
		</contour>
		<contour>
			<point x="411" y="60" type="line"/>
			<point x="411" y="-66" type="line"/>
			<point x="974" y="-66" type="line"/>
			<point x="974" y="60" type="line"/>
		</contour>
		<contour>
			<point x="472" y="383" type="line"/>
			<point x="472" y="272" type="line"/>
			<point x="963" y="272" type="line"/>
			<point x="963" y="383" type="line"/>
		</contour>
		<contour>
			<point x="503" y="491" type="line"/>
			<point x="521" y="453" />
			<point x="538" y="402" />
			<point x="542" y="368" type="curve"/>
			<point x="643" y="404" type="line"/>
			<point x="636" y="437" />
			<point x="618" y="486" />
			<point x="598" y="522" type="curve"/>
		</contour>
		<contour>
			<point x="823" y="522" type="line"/>
			<point x="814" y="487" />
			<point x="795" y="436" />
			<point x="780" y="403" type="curve"/>
			<point x="864" y="367" type="line"/>
			<point x="881" y="395" />
			<point x="903" y="438" />
			<point x="928" y="480" type="curve"/>
		</contour>
		<contour>
			<point x="131" y="855" type="line"/>
			<point x="131" y="-95" type="line"/>
			<point x="260" y="-95" type="line"/>
			<point x="260" y="855" type="line"/>
		</contour>
		<contour>
			<point x="51" y="654" type="line"/>
			<point x="48" y="568" />
			<point x="34" y="456" />
			<point x="10" y="389" type="curve"/>
			<point x="108" y="352" type="line"/>
			<point x="133" y="430" />
			<point x="148" y="550" />
			<point x="148" y="642" type="curve"/>
		</contour>
		<contour>
			<point x="226" y="678" type="line"/>
			<point x="247" y="620" />
			<point x="270" y="544" />
			<point x="280" y="498" type="curve"/>
			<point x="363" y="533" type="line"/>
			<point x="353" y="577" />
			<point x="327" y="651" />
			<point x="305" y="706" type="curve"/>
		</contour>
	</outline>
</glyph>
<glyph name="cid17969" format="1" >
	<advance width="1000"/>
	<outline>
		<contour>
			<point x="554" y="713" type="line"/>
			<point x="787" y="713" type="line"/>
			<point x="772" y="562" type="line"/>
			<point x="535" y="562" type="line"/>
		</contour>
		<contour>
			<point x="448" y="818" type="line"/>
			<point x="403" y="458" type="line"/>
			<point x="886" y="458" type="line"/>
			<point x="921" y="818" type="line"/>
		</contour>
		<contour>
			<point x="343" y="699" type="line"/>
			<point x="343" y="577" type="line"/>
			<point x="498" y="577" type="line"/>
			<point x="498" y="596" type="line"/>
			<point x="813" y="596" type="line"/>
			<point x="813" y="577" type="line"/>
			<point x="973" y="577" type="line"/>
			<point x="973" y="699" type="line"/>
			<point x="813" y="699" type="line"/>
			<point x="813" y="680" type="line"/>
			<point x="498" y="680" type="line"/>
			<point x="498" y="699" type="line"/>
		</contour>
		<contour>
			<point x="572" y="295" type="line"/>
			<point x="572" y="174" type="line"/>
			<point x="572" y="114" />
			<point x="521" y="48" />
			<point x="269" y="11" type="curve"/>
			<point x="301" y="-16" />
			<point x="341" y="-66" />
			<point x="358" y="-97" type="curve"/>
			<point x="641" y="-41" />
			<point x="717" y="58" />
			<point x="717" y="171" type="curve"/>
			<point x="717" y="295" type="line"/>
		</contour>
		<contour>
			<point x="679" y="18" type="line"/>
			<point x="756" y="-12" />
			<point x="862" y="-62" />
			<point x="912" y="-97" type="curve"/>
			<point x="983" y="6" type="line"/>
			<point x="929" y="40" />
			<point x="821" y="85" />
			<point x="746" y="110" type="curve"/>
		</contour>
		<contour>
			<point x="385" y="428" type="line"/>
			<point x="385" y="94" type="line"/>
			<point x="514" y="94" type="line"/>
			<point x="514" y="330" type="line"/>
			<point x="776" y="330" type="line"/>
			<point x="776" y="104" type="line"/>
			<point x="912" y="104" type="line"/>
			<point x="912" y="428" type="line"/>
		</contour>
		<contour>
			<point x="620" y="757" type="line"/>
			<point x="614" y="683" />
			<point x="602" y="591" />
			<point x="590" y="530" type="curve"/>
			<point x="704" y="530" type="line"/>
			<point x="714" y="589" />
			<point x="725" y="680" />
			<point x="732" y="757" type="curve"/>
		</contour>
		<contour>
			<point x="140" y="855" type="line"/>
			<point x="140" y="-95" type="line"/>
			<point x="277" y="-95" type="line"/>
			<point x="277" y="855" type="line"/>
		</contour>
		<contour>
			<point x="50" y="654" type="line"/>
			<point x="47" y="568" />
			<point x="33" y="455" />
			<point x="9" y="389" type="curve"/>
			<point x="112" y="350" type="line"/>
			<point x="137" y="429" />
			<point x="151" y="549" />
			<point x="151" y="641" type="curve"/>
		</contour>
		<contour>
			<point x="238" y="646" type="line"/>
			<point x="260" y="585" />
			<point x="286" y="503" />
			<point x="296" y="454" type="curve"/>
			<point x="391" y="495" type="line"/>
			<point x="379" y="541" />
			<point x="350" y="620" />
			<point x="327" y="679" type="curve"/>
		</contour>
	</outline>
</glyph>
<glyph name="cid17972" format="1" >
	<advance width="1000"/>
	<outline>
		<contour>
			<point x="442" y="840" type="line"/>
			<point x="423" y="787" />
			<point x="387" y="711" />
			<point x="351" y="646" type="curve"/>
			<point x="403" y="572" />
			<point x="448" y="492" />
			<point x="469" y="435" type="curve"/>
			<point x="592" y="477" type="line"/>
			<point x="570" y="524" />
			<point x="528" y="590" />
			<point x="485" y="647" type="curve"/>
			<point x="513" y="698" />
			<point x="541" y="746" />
			<point x="569" y="813" type="curve"/>
		</contour>
		<contour>
			<point x="630" y="844" type="line"/>
			<point x="609" y="792" />
			<point x="569" y="717" />
			<point x="531" y="654" type="curve"/>
			<point x="588" y="581" />
			<point x="637" y="503" />
			<point x="662" y="448" type="curve"/>
			<point x="783" y="490" type="line"/>
			<point x="759" y="536" />
			<point x="713" y="601" />
			<point x="667" y="655" type="curve"/>
			<point x="696" y="704" />
			<point x="727" y="751" />
			<point x="757" y="817" type="curve"/>
		</contour>
		<contour>
			<point x="829" y="845" type="line"/>
			<point x="804" y="791" />
			<point x="757" y="713" />
			<point x="713" y="647" type="curve"/>
			<point x="777" y="572" />
			<point x="834" y="490" />
			<point x="861" y="432" type="curve"/>
			<point x="984" y="477" type="line"/>
			<point x="957" y="525" />
			<point x="905" y="592" />
			<point x="854" y="649" type="curve"/>
			<point x="888" y="699" />
			<point x="924" y="748" />
			<point x="958" y="815" type="curve"/>
		</contour>
		<contour>
			<point x="374" y="401" type="line"/>
			<point x="374" y="-94" type="line"/>
			<point x="506" y="-94" type="line"/>
			<point x="506" y="288" type="line"/>
			<point x="805" y="288" type="line"/>
			<point x="805" y="-89" type="line"/>
			<point x="944" y="-89" type="line"/>
			<point x="944" y="401" type="line"/>
		</contour>
		<contour>
			<point x="430" y="55" type="line"/>
			<point x="430" y="-59" type="line"/>
			<point x="876" y="-59" type="line"/>
			<point x="876" y="55" type="line"/>
		</contour>
		<contour>
			<point x="598" y="474" type="line"/>
			<point x="590" y="437" />
			<point x="573" y="386" />
			<point x="558" y="349" type="curve"/>
			<point x="687" y="333" type="line"/>
			<point x="704" y="365" />
			<point x="725" y="409" />
			<point x="747" y="460" type="curve"/>
		</contour>
		<contour>
			<point x="509" y="208" type="line"/>
			<point x="585" y="167" />
			<point x="684" y="105" />
			<point x="731" y="62" type="curve"/>
			<point x="801" y="140" type="line"/>
			<point x="751" y="182" />
			<point x="649" y="240" />
			<point x="575" y="277" type="curve"/>
		</contour>
		<contour>
			<point x="687" y="291" type="line"/>
			<point x="646" y="227" />
			<point x="576" y="164" />
			<point x="503" y="123" type="curve"/>
			<point x="528" y="108" />
			<point x="571" y="75" />
			<point x="590" y="56" type="curve"/>
			<point x="661" y="104" />
			<point x="741" y="181" />
			<point x="790" y="259" type="curve"/>
		</contour>
		<contour>
			<point x="145" y="855" type="line"/>
			<point x="145" y="-95" type="line"/>
			<point x="282" y="-95" type="line"/>
			<point x="282" y="855" type="line"/>
		</contour>
		<contour>
			<point x="59" y="654" type="line"/>
			<point x="58" y="563" />
			<point x="44" y="452" />
			<point x="14" y="389" type="curve"/>
			<point x="102" y="350" type="line"/>
			<point x="136" y="426" />
			<point x="150" y="544" />
			<point x="148" y="643" type="curve"/>
		</contour>
		<contour>
			<point x="244" y="653" type="line"/>
			<point x="272" y="586" />
			<point x="296" y="499" />
			<point x="301" y="444" type="curve"/>
			<point x="388" y="478" type="line"/>
			<point x="382" y="532" />
			<point x="355" y="617" />
			<point x="325" y="682" type="curve"/>
		</contour>
	</outline>
</glyph>
<glyph name="cid17976" format="1" >
	<advance width="1000"/>
	<outline>
		<contour>
			<point x="348" y="292" type="line"/>
			<point x="348" y="172" type="line"/>
			<point x="961" y="172" type="line"/>
			<point x="961" y="292" type="line"/>
		</contour>
		<contour>
			<point x="353" y="735" type="line"/>
			<point x="353" y="622" type="line"/>
			<point x="970" y="622" type="line"/>
			<point x="970" y="735" type="line"/>
		</contour>
		<contour>
			<point x="596" y="360" type="line"/>
			<point x="596" y="-95" type="line"/>
			<point x="733" y="-95" type="line"/>
			<point x="733" y="360" type="line"/>
		</contour>
		<contour>
			<point x="605" y="855" type="line"/>
			<point x="605" y="485" type="line"/>
			<point x="904" y="485" type="line"/>
			<point x="904" y="842" type="line"/>
			<point x="779" y="842" type="line"/>
			<point x="779" y="581" type="line"/>
			<point x="724" y="581" type="line"/>
			<point x="724" y="855" type="line"/>
		</contour>
		<contour>
			<point x="757" y="226" type="curve"/>
			<point x="654" y="186" type="line"/>
			<point x="713" y="88" />
			<point x="809" y="-12" />
			<point x="904" y="-67" type="curve"/>
			<point x="924" y="-35" />
			<point x="964" y="12" />
			<point x="993" y="36" type="curve"/>
			<point x="903" y="77" />
			<point x="807" y="153" />
		</contour>
		<contour>
			<point x="583" y="230" type="line"/>
			<point x="527" y="149" />
			<point x="419" y="69" />
			<point x="312" y="27" type="curve"/>
			<point x="342" y="2" />
			<point x="383" y="-48" />
			<point x="404" y="-80" type="curve"/>
			<point x="515" y="-24" />
			<point x="623" y="80" />
			<point x="689" y="189" type="curve"/>
		</contour>
		<contour>
			<point x="423" y="835" type="line"/>
			<point x="423" y="341" type="line"/>
			<point x="960" y="341" type="line"/>
			<point x="960" y="452" type="line"/>
			<point x="549" y="452" type="line"/>
			<point x="549" y="835" type="line"/>
		</contour>
		<contour>
			<point x="145" y="855" type="line"/>
			<point x="145" y="-95" type="line"/>
			<point x="282" y="-95" type="line"/>
			<point x="282" y="855" type="line"/>
		</contour>
		<contour>
			<point x="59" y="654" type="line"/>
			<point x="58" y="563" />
			<point x="44" y="452" />
			<point x="14" y="389" type="curve"/>
			<point x="102" y="350" type="line"/>
			<point x="136" y="426" />
			<point x="150" y="544" />
			<point x="148" y="643" type="curve"/>
		</contour>
		<contour>
			<point x="244" y="653" type="line"/>
			<point x="272" y="586" />
			<point x="296" y="499" />
			<point x="301" y="444" type="curve"/>
			<point x="388" y="478" type="line"/>
			<point x="382" y="532" />
			<point x="355" y="617" />
			<point x="325" y="682" type="curve"/>
		</contour>
	</outline>
</glyph>
<glyph name="cid17980" format="1" >
	<advance width="1000"/>
	<outline>
		<contour>
			<point x="293" y="163" type="line"/>
			<point x="293" y="66" type="line"/>
			<point x="293" y="-47" />
			<point x="324" y="-85" />
			<point x="463" y="-85" type="curve"/>
			<point x="491" y="-85" />
			<point x="568" y="-85" />
			<point x="597" y="-85" type="curve"/>
			<point x="696" y="-85" />
			<point x="734" y="-55" />
			<point x="750" y="61" type="curve"/>
			<point x="712" y="69" />
			<point x="652" y="90" />
			<point x="624" y="110" type="curve"/>
			<point x="620" y="48" />
			<point x="613" y="38" />
			<point x="583" y="38" type="curve"/>
			<point x="561" y="38" />
			<point x="500" y="38" />
			<point x="483" y="38" type="curve"/>
			<point x="444" y="38" />
			<point x="437" y="41" />
			<point x="437" y="68" type="curve"/>
			<point x="437" y="163" type="line"/>
		</contour>
		<contour>
			<point x="407" y="171" type="line"/>
			<point x="453" y="141" />
			<point x="507" y="95" />
			<point x="531" y="62" type="curve"/>
			<point x="630" y="146" type="line"/>
			<point x="603" y="180" />
			<point x="546" y="222" />
			<point x="500" y="248" type="curve"/>
		</contour>
		<contour>
			<point x="689" y="110" type="line"/>
			<point x="752" y="56" />
			<point x="822" y="-23" />
			<point x="850" y="-76" type="curve"/>
			<point x="975" y="-2" type="line"/>
			<point x="942" y="55" />
			<point x="868" y="128" />
			<point x="805" y="178" type="curve"/>
		</contour>
		<contour>
			<point x="146" y="169" type="line"/>
			<point x="122" y="108" />
			<point x="81" y="42" />
			<point x="36" y="-1" type="curve"/>
			<point x="160" y="-75" type="line"/>
			<point x="207" y="-25" />
			<point x="244" y="49" />
			<point x="271" y="115" type="curve"/>
		</contour>
		<contour>
			<point x="376" y="289" type="line"/>
			<point x="618" y="289" type="line"/>
			<point x="618" y="266" type="line"/>
			<point x="376" y="266" type="line"/>
		</contour>
		<contour>
			<point x="376" y="386" type="line"/>
			<point x="618" y="386" type="line"/>
			<point x="618" y="363" type="line"/>
			<point x="376" y="363" type="line"/>
		</contour>
		<contour>
			<point x="239" y="465" type="line"/>
			<point x="239" y="187" type="line"/>
			<point x="762" y="187" type="line"/>
			<point x="762" y="465" type="line"/>
		</contour>
		<contour>
			<point x="94" y="788" type="line"/>
			<point x="94" y="703" type="line"/>
			<point x="900" y="703" type="line"/>
			<point x="900" y="788" type="line"/>
		</contour>
		<contour>
			<point x="135" y="682" type="line"/>
			<point x="135" y="600" type="line"/>
			<point x="860" y="600" type="line"/>
			<point x="860" y="682" type="line"/>
		</contour>
		<contour>
			<point x="60" y="578" type="line"/>
			<point x="60" y="488" type="line"/>
			<point x="938" y="488" type="line"/>
			<point x="938" y="578" type="line"/>
		</contour>
		<contour>
			<point x="403" y="858" type="line"/>
			<point x="364" y="608" />
			<point x="251" y="456" />
			<point x="26" y="379" type="curve"/>
			<point x="55" y="353" />
			<point x="103" y="296" />
			<point x="120" y="267" type="curve"/>
			<point x="357" y="367" />
			<point x="487" y="545" />
			<point x="544" y="839" type="curve"/>
		</contour>
		<contour>
			<point x="696" y="560" type="curve"/>
			<point x="577" y="528" type="line"/>
			<point x="640" y="400" />
			<point x="741" y="310" />
			<point x="894" y="270" type="curve"/>
			<point x="912" y="305" />
			<point x="951" y="359" />
			<point x="981" y="386" type="curve"/>
			<point x="845" y="412" />
			<point x="745" y="474" />
		</contour>
	</outline>
</glyph>
<glyph name="cid17982" format="1" >
	<advance width="1000"/>
	<outline>
		<contour>
			<point x="464" y="859" type="line"/>
			<point x="434" y="784" />
			<point x="379" y="707" />
			<point x="319" y="657" type="curve"/>
			<point x="352" y="638" />
			<point x="407" y="598" />
			<point x="432" y="574" type="curve"/>
			<point x="493" y="633" />
			<point x="559" y="730" />
			<point x="598" y="822" type="curve"/>
		</contour>
		<contour>
			<point x="500" y="789" type="line"/>
			<point x="446" y="680" type="line"/>
			<point x="874" y="680" type="line"/>
			<point x="874" y="789" type="line"/>
		</contour>
		<contour>
			<point x="532" y="499" type="line"/>
			<point x="624" y="499" type="line"/>
			<point x="624" y="479" type="line"/>
			<point x="532" y="479" type="line"/>
		</contour>
		<contour>
			<point x="532" y="589" type="line"/>
			<point x="624" y="589" type="line"/>
			<point x="624" y="569" type="line"/>
			<point x="532" y="569" type="line"/>
		</contour>
		<contour>
			<point x="426" y="663" type="line"/>
			<point x="426" y="405" type="line"/>
			<point x="735" y="405" type="line"/>
			<point x="735" y="663" type="line"/>
		</contour>
		<contour>
			<point x="329" y="175" type="line"/>
			<point x="329" y="62" type="line"/>
			<point x="964" y="62" type="line"/>
			<point x="964" y="175" type="line"/>
		</contour>
		<contour>
			<point x="815" y="789" type="line"/>
			<point x="815" y="768" type="line"/>
			<point x="807" y="576" />
			<point x="796" y="504" />
			<point x="782" y="486" type="curve"/>
			<point x="773" y="475" />
			<point x="765" y="473" />
			<point x="752" y="473" type="curve"/>
			<point x="737" y="473" />
			<point x="713" y="473" />
			<point x="684" y="477" type="curve"/>
			<point x="703" y="444" />
			<point x="717" y="392" />
			<point x="719" y="356" type="curve"/>
			<point x="763" y="354" />
			<point x="802" y="355" />
			<point x="828" y="360" type="curve"/>
			<point x="857" y="365" />
			<point x="881" y="375" />
			<point x="903" y="402" type="curve"/>
			<point x="929" y="435" />
			<point x="943" y="525" />
			<point x="953" y="738" type="curve"/>
			<point x="955" y="755" />
			<point x="956" y="789" />
			<point x="956" y="789" type="curve"/>
		</contour>
		<contour>
			<point x="398" y="344" type="line"/>
			<point x="398" y="235" type="line"/>
			<point x="813" y="235" type="line"/>
			<point x="813" y="344" type="line"/>
		</contour>
		<contour>
			<point x="595" y="195" type="line"/>
			<point x="595" y="33" type="line"/>
			<point x="595" y="22" />
			<point x="590" y="19" />
			<point x="576" y="19" type="curve"/>
			<point x="562" y="19" />
			<point x="507" y="19" />
			<point x="468" y="21" type="curve"/>
			<point x="484" y="-12" />
			<point x="501" y="-60" />
			<point x="507" y="-95" type="curve"/>
			<point x="577" y="-95" />
			<point x="632" y="-95" />
			<point x="675" y="-78" type="curve"/>
			<point x="719" y="-61" />
			<point x="731" y="-31" />
			<point x="731" y="29" type="curve"/>
			<point x="731" y="195" type="line"/>
		</contour>
		<contour>
			<point x="782" y="344" type="line"/>
			<point x="782" y="318" type="line"/>
			<point x="747" y="283" />
			<point x="664" y="226" />
			<point x="595" y="195" type="curve"/>
			<point x="614" y="176" />
			<point x="649" y="137" />
			<point x="665" y="113" type="curve"/>
			<point x="760" y="154" />
			<point x="859" y="217" />
			<point x="937" y="274" type="curve"/>
			<point x="849" y="351" type="line"/>
			<point x="819" y="344" type="line"/>
		</contour>
		<contour>
			<point x="145" y="855" type="line"/>
			<point x="145" y="-95" type="line"/>
			<point x="287" y="-95" type="line"/>
			<point x="287" y="855" type="line"/>
		</contour>
		<contour>
			<point x="50" y="658" type="line"/>
			<point x="47" y="570" />
			<point x="33" y="456" />
			<point x="9" y="389" type="curve"/>
			<point x="115" y="349" type="line"/>
			<point x="140" y="429" />
			<point x="154" y="551" />
			<point x="154" y="645" type="curve"/>
		</contour>
		<contour>
			<point x="243" y="668" type="line"/>
			<point x="270" y="599" />
			<point x="303" y="507" />
			<point x="317" y="452" type="curve"/>
			<point x="418" y="499" type="line"/>
			<point x="402" y="551" />
			<point x="366" y="640" />
			<point x="337" y="707" type="curve"/>
		</contour>
	</outline>
</glyph>
<glyph name="cid17985" format="1" >
	<advance width="1000"/>
	<outline>
		<contour>
			<point x="530" y="579" type="line"/>
			<point x="783" y="579" type="line"/>
			<point x="783" y="541" type="line"/>
			<point x="530" y="541" type="line"/>
		</contour>
		<contour>
			<point x="530" y="715" type="line"/>
			<point x="783" y="715" type="line"/>
			<point x="783" y="677" type="line"/>
			<point x="530" y="677" type="line"/>
		</contour>
		<contour>
			<point x="390" y="820" type="line"/>
			<point x="390" y="436" type="line"/>
			<point x="931" y="436" type="line"/>
			<point x="931" y="820" type="line"/>
		</contour>
		<contour>
			<point x="315" y="36" type="line"/>
			<point x="315" y="-81" type="line"/>
			<point x="973" y="-81" type="line"/>
			<point x="973" y="36" type="line"/>
		</contour>
		<contour>
			<point x="398" y="437" type="line"/>
			<point x="380" y="362" />
			<point x="344" y="285" />
			<point x="299" y="236" type="curve"/>
			<point x="330" y="219" />
			<point x="386" y="183" />
			<point x="411" y="162" type="curve"/>
			<point x="459" y="220" />
			<point x="505" y="315" />
			<point x="530" y="407" type="curve"/>
		</contour>
		<contour>
			<point x="452" y="358" type="line"/>
			<point x="395" y="244" type="line"/>
			<point x="939" y="244" type="line"/>
			<point x="939" y="358" type="line"/>
		</contour>
		<contour>
			<point x="584" y="415" type="line"/>
			<point x="584" y="-44" type="line"/>
			<point x="730" y="-44" type="line"/>
			<point x="730" y="415" type="line"/>
		</contour>
		<contour>
			<point x="410" y="197" type="line"/>
			<point x="410" y="86" type="line"/>
			<point x="915" y="86" type="line"/>
			<point x="915" y="197" type="line"/>
		</contour>
		<contour>
			<point x="145" y="855" type="line"/>
			<point x="145" y="-95" type="line"/>
			<point x="287" y="-95" type="line"/>
			<point x="287" y="855" type="line"/>
		</contour>
		<contour>
			<point x="50" y="654" type="line"/>
			<point x="47" y="568" />
			<point x="33" y="455" />
			<point x="9" y="389" type="curve"/>
			<point x="115" y="349" type="line"/>
			<point x="140" y="428" />
			<point x="154" y="548" />
			<point x="154" y="641" type="curve"/>
		</contour>
		<contour>
			<point x="245" y="646" type="line"/>
			<point x="271" y="581" />
			<point x="302" y="494" />
			<point x="315" y="442" type="curve"/>
			<point x="414" y="488" type="line"/>
			<point x="399" y="538" />
			<point x="365" y="622" />
			<point x="338" y="684" type="curve"/>
		</contour>
	</outline>
</glyph>
<glyph name="cid17996" format="1" >
	<advance width="1000"/>
	<outline>
		<contour>
			<point x="334" y="579" type="line"/>
			<point x="334" y="443" type="line"/>
			<point x="605" y="443" type="line"/>
			<point x="605" y="579" type="line"/>
		</contour>
		<contour>
			<point x="422" y="765" type="line"/>
			<point x="422" y="-95" type="line"/>
			<point x="545" y="-95" type="line"/>
			<point x="545" y="765" type="line"/>
		</contour>
		<contour>
			<point x="558" y="847" type="line"/>
			<point x="494" y="819" />
			<point x="398" y="794" />
			<point x="309" y="779" type="curve"/>
			<point x="324" y="750" />
			<point x="341" y="704" />
			<point x="346" y="674" type="curve"/>
			<point x="442" y="685" />
			<point x="555" y="706" />
			<point x="646" y="739" type="curve"/>
		</contour>
		<contour>
			<point x="403" y="517" type="line"/>
			<point x="386" y="400" />
			<point x="340" y="252" />
			<point x="284" y="163" type="curve"/>
			<point x="304" y="129" />
			<point x="335" y="74" />
			<point x="347" y="35" type="curve"/>
			<point x="415" y="141" />
			<point x="462" y="336" />
			<point x="486" y="492" type="curve"/>
		</contour>
		<contour>
			<point x="542" y="416" type="curve"/>
			<point x="497" y="351" type="line"/>
			<point x="518" y="307" />
			<point x="562" y="208" />
			<point x="580" y="152" type="curve"/>
			<point x="640" y="274" type="line"/>
			<point x="627" y="294" />
			<point x="559" y="394" />
		</contour>
		<contour>
			<point x="623" y="634" type="line"/>
			<point x="624" y="544" />
			<point x="617" y="441" />
			<point x="589" y="382" type="curve"/>
			<point x="672" y="316" type="line"/>
			<point x="708" y="392" />
			<point x="717" y="513" />
			<point x="715" y="624" type="curve"/>
		</contour>
		<contour>
			<point x="866" y="636" type="line"/>
			<point x="862" y="549" />
			<point x="847" y="428" />
			<point x="832" y="351" type="curve"/>
			<point x="927" y="331" type="line"/>
			<point x="945" y="403" />
			<point x="965" y="517" />
			<point x="982" y="616" type="curve"/>
		</contour>
		<contour>
			<point x="723" y="838" type="line"/>
			<point x="723" y="559" type="line"/>
			<point x="723" y="388" />
			<point x="708" y="167" />
			<point x="577" y="7" type="curve"/>
			<point x="602" y="-15" />
			<point x="642" y="-68" />
			<point x="659" y="-101" type="curve"/>
			<point x="825" y="93" />
			<point x="844" y="350" />
			<point x="844" y="559" type="curve"/>
			<point x="844" y="838" type="line"/>
		</contour>
		<contour>
			<point x="835" y="493" type="curve"/>
			<point x="737" y="484" type="line"/>
			<point x="753" y="239" />
			<point x="783" y="27" />
			<point x="899" y="-88" type="curve"/>
			<point x="917" y="-52" />
			<point x="959" y="1" />
			<point x="986" y="25" type="curve"/>
			<point x="882" y="110" />
			<point x="850" y="295" />
		</contour>
		<contour>
			<point x="138" y="855" type="line"/>
			<point x="138" y="-95" type="line"/>
			<point x="269" y="-95" type="line"/>
			<point x="269" y="855" type="line"/>
		</contour>
		<contour>
			<point x="51" y="673" type="line"/>
			<point x="49" y="585" />
			<point x="37" y="468" />
			<point x="14" y="400" type="curve"/>
			<point x="114" y="362" type="line"/>
			<point x="138" y="443" />
			<point x="150" y="568" />
			<point x="149" y="662" type="curve"/>
		</contour>
		<contour>
			<point x="241" y="676" type="line"/>
			<point x="261" y="620" />
			<point x="283" y="545" />
			<point x="292" y="500" type="curve"/>
			<point x="381" y="536" type="line"/>
			<point x="371" y="579" />
			<point x="346" y="651" />
			<point x="325" y="706" type="curve"/>
		</contour>
	</outline>
</glyph>
<glyph name="cid17998" format="1" >
	<advance width="1000"/>
	<outline>
		<contour>
			<point x="293" y="189" type="line"/>
			<point x="293" y="73" type="line"/>
			<point x="293" y="-44" />
			<point x="324" y="-84" />
			<point x="464" y="-84" type="curve"/>
			<point x="491" y="-84" />
			<point x="567" y="-84" />
			<point x="596" y="-84" type="curve"/>
			<point x="696" y="-84" />
			<point x="735" y="-54" />
			<point x="751" y="66" type="curve"/>
			<point x="713" y="74" />
			<point x="652" y="95" />
			<point x="624" y="116" type="curve"/>
			<point x="619" y="53" />
			<point x="613" y="44" />
			<point x="582" y="44" type="curve"/>
			<point x="560" y="44" />
			<point x="500" y="44" />
			<point x="483" y="44" type="curve"/>
			<point x="443" y="44" />
			<point x="437" y="47" />
			<point x="437" y="76" type="curve"/>
			<point x="437" y="189" type="line"/>
		</contour>
		<contour>
			<point x="378" y="218" type="line"/>
			<point x="430" y="180" />
			<point x="492" y="124" />
			<point x="518" y="85" type="curve"/>
			<point x="620" y="166" type="line"/>
			<point x="590" y="206" />
			<point x="526" y="258" />
			<point x="474" y="292" type="curve"/>
		</contour>
		<contour>
			<point x="685" y="148" type="line"/>
			<point x="751" y="85" />
			<point x="820" y="-4" />
			<point x="845" y="-66" type="curve"/>
			<point x="974" y="7" type="line"/>
			<point x="944" y="72" />
			<point x="871" y="155" />
			<point x="804" y="214" type="curve"/>
		</contour>
		<contour>
			<point x="156" y="199" type="line"/>
			<point x="133" y="123" />
			<point x="87" y="54" />
			<point x="24" y="10" type="curve"/>
			<point x="144" y="-74" type="line"/>
			<point x="217" y="-19" />
			<point x="258" y="65" />
			<point x="286" y="153" type="curve"/>
		</contour>
		<contour>
			<point x="199" y="764" type="line"/>
			<point x="199" y="228" type="line"/>
			<point x="332" y="228" type="line"/>
			<point x="332" y="764" type="line"/>
		</contour>
		<contour>
			<point x="694" y="850" type="line"/>
			<point x="621" y="850" type="line"/>
			<point x="621" y="609" type="line"/>
			<point x="621" y="526" />
			<point x="567" y="400" />
			<point x="413" y="330" type="curve"/>
			<point x="439" y="300" />
			<point x="477" y="239" />
			<point x="492" y="207" type="curve"/>
			<point x="601" y="257" />
			<point x="674" y="365" />
			<point x="693" y="431" type="curve"/>
			<point x="714" y="367" />
			<point x="784" y="255" />
			<point x="891" y="206" type="curve"/>
			<point x="910" y="242" />
			<point x="949" y="301" />
			<point x="975" y="333" type="curve"/>
			<point x="816" y="405" />
			<point x="766" y="526" />
			<point x="766" y="609" type="curve"/>
			<point x="766" y="850" type="line"/>
		</contour>
		<contour>
			<point x="498" y="725" type="line"/>
			<point x="485" y="659" />
			<point x="456" y="592" />
			<point x="415" y="550" type="curve"/>
			<point x="522" y="489" type="line"/>
			<point x="570" y="538" />
			<point x="594" y="614" />
			<point x="610" y="689" type="curve"/>
		</contour>
		<contour>
			<point x="828" y="737" type="line"/>
			<point x="814" y="680" />
			<point x="784" y="604" />
			<point x="760" y="554" type="curve"/>
			<point x="871" y="512" type="line"/>
			<point x="898" y="557" />
			<point x="933" y="625" />
			<point x="967" y="691" type="curve"/>
		</contour>
		<contour>
			<point x="44" y="662" type="line"/>
			<point x="44" y="544" type="line"/>
			<point x="454" y="544" type="line"/>
			<point x="454" y="662" type="line"/>
		</contour>
		<contour>
			<point x="379" y="854" type="line"/>
			<point x="294" y="824" />
			<point x="158" y="800" />
			<point x="34" y="787" type="curve"/>
			<point x="48" y="761" />
			<point x="64" y="716" />
			<point x="69" y="688" type="curve"/>
			<point x="200" y="698" />
			<point x="355" y="720" />
			<point x="471" y="758" type="curve"/>
		</contour>
		<contour>
			<point x="331" y="541" type="curve"/>
			<point x="248" y="484" type="line"/>
			<point x="286" y="449" />
			<point x="351" y="380" />
			<point x="383" y="339" type="curve"/>
			<point x="472" y="434" type="line"/>
			<point x="450" y="453" />
			<point x="360" y="523" />
		</contour>
		<contour>
			<point x="200" y="595" type="line"/>
			<point x="163" y="509" />
			<point x="92" y="418" />
			<point x="19" y="367" type="curve"/>
			<point x="49" y="344" />
			<point x="91" y="296" />
			<point x="113" y="265" type="curve"/>
			<point x="191" y="332" />
			<point x="261" y="448" />
			<point x="303" y="561" type="curve"/>
		</contour>
	</outline>
</glyph>
<glyph name="cid18004" format="1" >
	<advance width="1000"/>
	<outline>
		<contour>
			<point x="307" y="365" type="line"/>
			<point x="307" y="239" type="line"/>
			<point x="960" y="239" type="line"/>
			<point x="960" y="365" type="line"/>
		</contour>
		<contour>
			<point x="494" y="566" type="line"/>
			<point x="789" y="566" type="line"/>
			<point x="789" y="518" type="line"/>
			<point x="494" y="518" type="line"/>
		</contour>
		<contour>
			<point x="494" y="710" type="line"/>
			<point x="789" y="710" type="line"/>
			<point x="789" y="663" type="line"/>
			<point x="494" y="663" type="line"/>
		</contour>
		<contour>
			<point x="369" y="815" type="line"/>
			<point x="369" y="413" type="line"/>
			<point x="920" y="413" type="line"/>
			<point x="920" y="815" type="line"/>
		</contour>
		<contour>
			<point x="579" y="757" type="line"/>
			<point x="579" y="469" type="line"/>
			<point x="708" y="469" type="line"/>
			<point x="708" y="757" type="line"/>
		</contour>
		<contour>
			<point x="679" y="313" type="curve"/>
			<point x="557" y="286" type="line"/>
			<point x="618" y="103" />
			<point x="717" y="-23" />
			<point x="898" y="-83" type="curve"/>
			<point x="916" y="-47" />
			<point x="956" y="8" />
			<point x="986" y="36" type="curve"/>
			<point x="825" y="78" />
			<point x="726" y="178" />
		</contour>
		<contour>
			<point x="876" y="253" type="line"/>
			<point x="836" y="221" />
			<point x="769" y="177" />
			<point x="724" y="156" type="curve"/>
			<point x="791" y="72" type="line"/>
			<point x="839" y="91" />
			<point x="904" y="124" />
			<point x="960" y="157" type="curve"/>
		</contour>
		<contour>
			<point x="380" y="-97" type="line"/>
			<point x="407" y="-81" />
			<point x="449" y="-66" />
			<point x="660" y="-20" type="curve"/>
			<point x="658" y="11" />
			<point x="658" y="67" />
			<point x="663" y="106" type="curve"/>
			<point x="425" y="61" type="line"/>
			<point x="369" y="19" type="line"/>
		</contour>
		<contour>
			<point x="143" y="854" type="line"/>
			<point x="143" y="-96" type="line"/>
			<point x="277" y="-96" type="line"/>
			<point x="277" y="854" type="line"/>
		</contour>
		<contour>
			<point x="52" y="654" type="line"/>
			<point x="47" y="571" />
			<point x="33" y="458" />
			<point x="13" y="389" type="curve"/>
			<point x="120" y="353" type="line"/>
			<point x="138" y="432" />
			<point x="153" y="554" />
			<point x="154" y="641" type="curve"/>
		</contour>
		<contour>
			<point x="251" y="666" type="line"/>
			<point x="271" y="593" />
			<point x="292" y="496" />
			<point x="300" y="439" type="curve"/>
			<point x="398" y="473" type="line"/>
			<point x="388" y="528" />
			<point x="364" y="622" />
			<point x="342" y="693" type="curve"/>
		</contour>
		<contour>
			<point x="380" y="-97" type="curve"/>
			<point x="380" y="-57" />
			<point x="511" y="-5" />
			<point x="511" y="-5" type="curve"/>
			<point x="511" y="304" type="line"/>
			<point x="376" y="304" type="line"/>
			<point x="376" y="83" type="line"/>
			<point x="376" y="45" />
			<point x="357" y="29" />
			<point x="337" y="20" type="curve"/>
			<point x="355" y="-6" />
			<point x="375" y="-65" />
		</contour>
	</outline>
</glyph>
<glyph name="cid18006" format="1" >
	<advance width="1000"/>
	<outline>
		<contour>
			<point x="200" y="854" type="line"/>
			<point x="165" y="806" />
			<point x="91" y="750" />
			<point x="23" y="717" type="curve"/>
			<point x="50" y="695" />
			<point x="91" y="651" />
			<point x="113" y="624" type="curve"/>
			<point x="190" y="666" />
			<point x="274" y="736" />
			<point x="332" y="807" type="curve"/>
		</contour>
		<contour>
			<point x="227" y="686" type="line"/>
			<point x="189" y="614" />
			<point x="104" y="532" />
			<point x="18" y="487" type="curve"/>
			<point x="40" y="461" />
			<point x="74" y="408" />
			<point x="90" y="378" type="curve"/>
			<point x="195" y="437" />
			<point x="295" y="538" />
			<point x="359" y="642" type="curve"/>
		</contour>
		<contour>
			<point x="335" y="324" type="curve"/>
			<point x="420" y="214" type="line"/>
			<point x="483" y="270" />
			<point x="547" y="329" />
			<point x="606" y="388" type="curve"/>
			<point x="540" y="489" type="line"/>
			<point x="469" y="424" />
			<point x="390" y="361" />
		</contour>
		<contour>
			<point x="337" y="561" type="line"/>
			<point x="388" y="540" />
			<point x="452" y="503" />
			<point x="482" y="475" type="curve"/>
			<point x="562" y="576" type="line"/>
			<point x="528" y="603" />
			<point x="462" y="635" />
			<point x="412" y="653" type="curve"/>
		</contour>
		<contour>
			<point x="357" y="736" type="line"/>
			<point x="409" y="715" />
			<point x="474" y="679" />
			<point x="504" y="652" type="curve"/>
			<point x="584" y="751" type="line"/>
			<point x="550" y="778" />
			<point x="483" y="809" />
			<point x="432" y="826" type="curve"/>
		</contour>
		<contour>
			<point x="607" y="828" type="line"/>
			<point x="607" y="707" type="line"/>
			<point x="927" y="707" type="line"/>
			<point x="927" y="828" type="line"/>
		</contour>
		<contour>
			<point x="579" y="648" type="line"/>
			<point x="579" y="526" type="line"/>
			<point x="953" y="526" type="line"/>
			<point x="953" y="648" type="line"/>
		</contour>
		<contour>
			<point x="726" y="577" type="line"/>
			<point x="726" y="346" type="line"/>
			<point x="726" y="335" />
			<point x="722" y="332" />
			<point x="708" y="332" type="curve"/>
			<point x="696" y="331" />
			<point x="648" y="331" />
			<point x="613" y="333" type="curve"/>
			<point x="630" y="300" />
			<point x="649" y="249" />
			<point x="655" y="213" type="curve"/>
			<point x="720" y="212" />
			<point x="770" y="214" />
			<point x="811" y="232" type="curve"/>
			<point x="853" y="251" />
			<point x="864" y="282" />
			<point x="864" y="342" type="curve"/>
			<point x="864" y="577" type="line"/>
		</contour>
		<contour>
			<point x="147" y="528" type="line"/>
			<point x="147" y="210" type="line"/>
			<point x="282" y="210" type="line"/>
			<point x="282" y="574" type="line"/>
			<point x="215" y="596" type="line"/>
		</contour>
		<contour>
			<point x="247" y="178" type="line"/>
			<point x="247" y="71" type="line"/>
			<point x="247" y="-42" />
			<point x="287" y="-79" />
			<point x="440" y="-79" type="curve"/>
			<point x="471" y="-79" />
			<point x="581" y="-79" />
			<point x="613" y="-79" type="curve"/>
			<point x="733" y="-79" />
			<point x="772" y="-43" />
			<point x="787" y="96" type="curve"/>
			<point x="749" y="104" />
			<point x="690" y="124" />
			<point x="660" y="145" type="curve"/>
			<point x="654" y="55" />
			<point x="646" y="40" />
			<point x="601" y="40" type="curve"/>
			<point x="570" y="40" />
			<point x="481" y="40" />
			<point x="457" y="40" type="curve"/>
			<point x="404" y="40" />
			<point x="394" y="44" />
			<point x="394" y="74" type="curve"/>
			<point x="394" y="178" type="line"/>
		</contour>
		<contour>
			<point x="411" y="186" type="line"/>
			<point x="460" y="146" />
			<point x="516" y="88" />
			<point x="539" y="48" type="curve"/>
			<point x="650" y="128" type="line"/>
			<point x="623" y="169" />
			<point x="564" y="223" />
			<point x="515" y="259" type="curve"/>
		</contour>
		<contour>
			<point x="736" y="138" type="line"/>
			<point x="777" y="79" />
			<point x="820" y="0" />
			<point x="835" y="-51" type="curve"/>
			<point x="962" y="13" type="line"/>
			<point x="944" y="65" />
			<point x="896" y="140" />
			<point x="854" y="195" type="curve"/>
		</contour>
		<contour>
			<point x="118" y="188" type="line"/>
			<point x="99" y="121" />
			<point x="67" y="43" />
			<point x="37" y="-11" type="curve"/>
			<point x="173" y="-76" type="line"/>
			<point x="199" y="-18" />
			<point x="227" y="67" />
			<point x="248" y="132" type="curve"/>
		</contour>
	</outline>
</glyph>
<glyph name="cid18012" format="1" >
	<advance width="1000"/>
	<outline>
		<contour>
			<point x="376" y="565" type="line"/>
			<point x="376" y="281" type="line"/>
			<point x="376" y="271" />
			<point x="372" y="268" />
			<point x="361" y="268" type="curve"/>
			<point x="352" y="267" />
			<point x="318" y="267" />
			<point x="292" y="269" type="curve"/>
			<point x="305" y="244" />
			<point x="322" y="207" />
			<point x="328" y="179" type="curve"/>
			<point x="383" y="179" />
			<point x="426" y="179" />
			<point x="458" y="194" type="curve"/>
			<point x="492" y="209" />
			<point x="502" y="231" />
			<point x="502" y="281" type="curve"/>
			<point x="502" y="565" type="line"/>
		</contour>
		<contour>
			<point x="738" y="562" type="line"/>
			<point x="738" y="294" type="line"/>
			<point x="738" y="285" />
			<point x="735" y="282" />
			<point x="725" y="282" type="curve"/>
			<point x="716" y="282" />
			<point x="687" y="282" />
			<point x="664" y="283" type="curve"/>
			<point x="679" y="253" />
			<point x="698" y="206" />
			<point x="704" y="171" type="curve"/>
			<point x="756" y="171" />
			<point x="796" y="173" />
			<point x="831" y="191" type="curve"/>
			<point x="866" y="209" />
			<point x="874" y="237" />
			<point x="874" y="291" type="curve"/>
			<point x="874" y="562" type="line"/>
		</contour>
		<contour>
			<point x="208" y="454" type="line"/>
			<point x="208" y="385" type="line"/>
			<point x="416" y="385" type="line"/>
			<point x="416" y="454" type="line"/>
		</contour>
		<contour>
			<point x="312" y="683" type="line"/>
			<point x="312" y="588" type="line"/>
			<point x="682" y="588" type="line"/>
			<point x="682" y="683" type="line"/>
		</contour>
		<contour>
			<point x="209" y="363" type="line"/>
			<point x="209" y="294" type="line"/>
			<point x="417" y="294" type="line"/>
			<point x="417" y="363" type="line"/>
		</contour>
		<contour>
			<point x="551" y="542" type="line"/>
			<point x="551" y="299" type="line"/>
			<point x="678" y="299" type="line"/>
			<point x="678" y="542" type="line"/>
		</contour>
		<contour>
			<point x="295" y="158" type="line"/>
			<point x="295" y="65" type="line"/>
			<point x="295" y="-48" />
			<point x="326" y="-86" />
			<point x="465" y="-86" type="curve"/>
			<point x="493" y="-86" />
			<point x="570" y="-86" />
			<point x="599" y="-86" type="curve"/>
			<point x="698" y="-86" />
			<point x="736" y="-57" />
			<point x="752" y="57" type="curve"/>
			<point x="714" y="64" />
			<point x="654" y="85" />
			<point x="626" y="105" type="curve"/>
			<point x="622" y="46" />
			<point x="615" y="37" />
			<point x="585" y="37" type="curve"/>
			<point x="563" y="37" />
			<point x="502" y="37" />
			<point x="485" y="37" type="curve"/>
			<point x="446" y="37" />
			<point x="439" y="39" />
			<point x="439" y="67" type="curve"/>
			<point x="439" y="158" type="line"/>
		</contour>
		<contour>
			<point x="433" y="168" type="line"/>
			<point x="474" y="132" />
			<point x="533" y="81" />
			<point x="559" y="51" type="curve"/>
			<point x="662" y="132" type="line"/>
			<point x="631" y="162" />
			<point x="571" y="209" />
			<point x="530" y="241" type="curve"/>
		</contour>
		<contour>
			<point x="712" y="113" type="line"/>
			<point x="765" y="58" />
			<point x="818" y="-19" />
			<point x="836" y="-71" type="curve"/>
			<point x="963" y="-10" type="line"/>
			<point x="940" y="45" />
			<point x="883" y="117" />
			<point x="829" y="169" type="curve"/>
		</contour>
		<contour>
			<point x="160" y="165" type="line"/>
			<point x="131" y="106" />
			<point x="80" y="45" />
			<point x="24" y="6" type="curve"/>
			<point x="143" y="-71" type="line"/>
			<point x="201" y="-24" />
			<point x="247" y="45" />
			<point x="281" y="110" type="curve"/>
		</contour>
		<contour>
			<point x="504" y="868" type="line"/>
			<point x="399" y="771" />
			<point x="197" y="705" />
			<point x="17" y="672" type="curve"/>
			<point x="47" y="641" />
			<point x="77" y="595" />
			<point x="93" y="561" type="curve"/>
			<point x="283" y="609" />
			<point x="483" y="689" />
			<point x="610" y="810" type="curve"/>
		</contour>
		<contour>
			<point x="561" y="813" type="curve"/>
			<point x="459" y="751" type="line"/>
			<point x="667" y="627" />
			<point x="810" y="587" />
			<point x="894" y="567" type="curve"/>
			<point x="911" y="607" />
			<point x="946" y="655" />
			<point x="976" y="684" type="curve"/>
			<point x="892" y="696" />
			<point x="746" y="723" />
		</contour>
		<contour>
			<point x="184" y="565" type="line"/>
			<point x="184" y="476" type="line"/>
			<point x="455" y="476" type="line"/>
			<point x="455" y="565" type="line"/>
		</contour>
		<contour>
			<point x="134" y="565" type="line"/>
			<point x="134" y="428" type="line"/>
			<point x="134" y="367" />
			<point x="129" y="296" />
			<point x="68" y="242" type="curve"/>
			<point x="97" y="228" />
			<point x="153" y="187" />
			<point x="174" y="166" type="curve"/>
			<point x="246" y="230" />
			<point x="259" y="338" />
			<point x="259" y="425" type="curve"/>
			<point x="259" y="565" type="line"/>
		</contour>
	</outline>
</glyph>
<glyph name="cid18016" format="1" >
	<advance width="1000"/>
	<outline>
		<contour>
			<point x="378" y="814" type="line"/>
			<point x="378" y="693" type="line"/>
			<point x="955" y="693" type="line"/>
			<point x="955" y="814" type="line"/>
		</contour>
		<contour>
			<point x="437" y="49" type="line"/>
			<point x="437" y="-60" type="line"/>
			<point x="888" y="-60" type="line"/>
			<point x="888" y="49" type="line"/>
		</contour>
		<contour>
			<point x="450" y="192" type="line"/>
			<point x="450" y="89" type="line"/>
			<point x="887" y="89" type="line"/>
			<point x="887" y="192" type="line"/>
		</contour>
		<contour>
			<point x="596" y="288" type="line"/>
			<point x="596" y="-18" type="line"/>
			<point x="720" y="-18" type="line"/>
			<point x="720" y="288" type="line"/>
		</contour>
		<contour>
			<point x="375" y="342" type="line"/>
			<point x="375" y="-94" type="line"/>
			<point x="506" y="-94" type="line"/>
			<point x="506" y="234" type="line"/>
			<point x="812" y="234" type="line"/>
			<point x="812" y="-89" type="line"/>
			<point x="949" y="-89" type="line"/>
			<point x="949" y="342" type="line"/>
		</contour>
		<contour>
			<point x="556" y="546" type="line"/>
			<point x="773" y="546" type="line"/>
			<point x="773" y="491" type="line"/>
			<point x="556" y="491" type="line"/>
		</contour>
		<contour>
			<point x="426" y="649" type="line"/>
			<point x="426" y="388" type="line"/>
			<point x="911" y="388" type="line"/>
			<point x="911" y="649" type="line"/>
		</contour>
		<contour>
			<point x="151" y="855" type="line"/>
			<point x="151" y="-95" type="line"/>
			<point x="291" y="-95" type="line"/>
			<point x="291" y="855" type="line"/>
		</contour>
		<contour>
			<point x="59" y="654" type="line"/>
			<point x="58" y="563" />
			<point x="44" y="452" />
			<point x="14" y="389" type="curve"/>
			<point x="107" y="348" type="line"/>
			<point x="141" y="425" />
			<point x="155" y="543" />
			<point x="153" y="642" type="curve"/>
		</contour>
		<contour>
			<point x="255" y="646" type="line"/>
			<point x="287" y="581" />
			<point x="317" y="496" />
			<point x="325" y="443" type="curve"/>
			<point x="414" y="484" type="line"/>
			<point x="405" y="537" />
			<point x="372" y="619" />
			<point x="338" y="682" type="curve"/>
		</contour>
	</outline>
</glyph>
<glyph name="cid18018" format="1" >
	<advance width="1000"/>
	<outline>
		<contour>
			<point x="504" y="855" type="line"/>
			<point x="473" y="752" />
			<point x="411" y="635" />
			<point x="307" y="547" type="curve"/>
			<point x="336" y="529" />
			<point x="380" y="486" />
			<point x="400" y="457" type="curve"/>
			<point x="519" y="566" />
			<point x="590" y="698" />
			<point x="637" y="834" type="curve"/>
		</contour>
		<contour>
			<point x="534" y="783" type="line"/>
			<point x="467" y="671" type="line"/>
			<point x="724" y="671" type="line"/>
			<point x="724" y="783" type="line"/>
		</contour>
		<contour>
			<point x="667" y="537" type="line"/>
			<point x="667" y="453" type="line"/>
			<point x="667" y="367" />
			<point x="682" y="338" />
			<point x="760" y="338" type="curve"/>
			<point x="774" y="338" />
			<point x="795" y="338" />
			<point x="810" y="338" type="curve"/>
			<point x="860" y="338" />
			<point x="887" y="356" />
			<point x="899" y="417" type="curve"/>
			<point x="871" y="423" />
			<point x="829" y="439" />
			<point x="813" y="454" type="curve"/>
			<point x="810" y="437" />
			<point x="807" y="434" />
			<point x="796" y="434" type="curve"/>
			<point x="791" y="434" />
			<point x="780" y="434" />
			<point x="776" y="434" type="curve"/>
			<point x="765" y="434" />
			<point x="764" y="436" />
			<point x="764" y="455" type="curve"/>
			<point x="764" y="537" type="line"/>
		</contour>
		<contour>
			<point x="337" y="242" type="line"/>
			<point x="337" y="123" type="line"/>
			<point x="968" y="123" type="line"/>
			<point x="968" y="242" type="line"/>
		</contour>
		<contour>
			<point x="718" y="199" type="curve"/>
			<point x="595" y="175" type="line"/>
			<point x="650" y="32" />
			<point x="735" y="-59" />
			<point x="896" y="-98" type="curve"/>
			<point x="914" y="-62" />
			<point x="952" y="-7" />
			<point x="982" y="21" type="curve"/>
			<point x="844" y="44" />
			<point x="759" y="106" />
		</contour>
		<contour>
			<point x="585" y="318" type="line"/>
			<point x="573" y="163" />
			<point x="552" y="72" />
			<point x="300" y="23" type="curve"/>
			<point x="328" y="-6" />
			<point x="362" y="-62" />
			<point x="375" y="-97" type="curve"/>
			<point x="664" y="-26" />
			<point x="706" y="111" />
			<point x="720" y="318" type="curve"/>
		</contour>
		<contour>
			<point x="379" y="617" type="line"/>
			<point x="379" y="262" type="line"/>
			<point x="506" y="262" type="line"/>
			<point x="506" y="499" type="line"/>
			<point x="808" y="499" type="line"/>
			<point x="808" y="262" type="line"/>
			<point x="942" y="262" type="line"/>
			<point x="942" y="617" type="line"/>
		</contour>
		<contour>
			<point x="538" y="549" type="line"/>
			<point x="538" y="496" type="line"/>
			<point x="538" y="464" />
			<point x="532" y="406" />
			<point x="481" y="370" type="curve"/>
			<point x="504" y="356" />
			<point x="541" y="326" />
			<point x="557" y="308" type="curve"/>
			<point x="628" y="356" />
			<point x="640" y="445" />
			<point x="640" y="492" type="curve"/>
			<point x="640" y="549" type="line"/>
		</contour>
		<contour>
			<point x="685" y="783" type="line"/>
			<point x="685" y="759" type="line"/>
			<point x="673" y="719" />
			<point x="644" y="650" />
			<point x="618" y="607" type="curve"/>
			<point x="647" y="591" />
			<point x="692" y="564" />
			<point x="718" y="544" type="curve"/>
			<point x="754" y="593" />
			<point x="801" y="672" />
			<point x="829" y="729" type="curve"/>
			<point x="736" y="788" type="line"/>
			<point x="715" y="783" type="line"/>
		</contour>
		<contour>
			<point x="145" y="855" type="line"/>
			<point x="145" y="-95" type="line"/>
			<point x="282" y="-95" type="line"/>
			<point x="282" y="855" type="line"/>
		</contour>
		<contour>
			<point x="59" y="684" type="line"/>
			<point x="58" y="593" />
			<point x="44" y="482" />
			<point x="14" y="419" type="curve"/>
			<point x="102" y="380" type="line"/>
			<point x="136" y="456" />
			<point x="150" y="574" />
			<point x="148" y="673" type="curve"/>
		</contour>
		<contour>
			<point x="259" y="713" type="line"/>
			<point x="278" y="668" />
			<point x="295" y="608" />
			<point x="298" y="570" type="curve"/>
			<point x="384" y="604" type="line"/>
			<point x="380" y="641" />
			<point x="361" y="698" />
			<point x="340" y="742" type="curve"/>
		</contour>
	</outline>
</glyph>
<glyph name="cid18020" format="1" >
	<advance width="1000"/>
	<outline>
		<contour>
			<point x="502" y="854" type="line"/>
			<point x="468" y="788" />
			<point x="405" y="719" />
			<point x="306" y="669" type="curve"/>
			<point x="332" y="649" />
			<point x="369" y="600" />
			<point x="385" y="570" type="curve"/>
			<point x="505" y="641" />
			<point x="580" y="727" />
			<point x="632" y="830" type="curve"/>
		</contour>
		<contour>
			<point x="527" y="774" type="line"/>
			<point x="462" y="663" type="line"/>
			<point x="789" y="663" type="line"/>
			<point x="789" y="774" type="line"/>
		</contour>
		<contour>
			<point x="363" y="613" type="line"/>
			<point x="363" y="224" type="line"/>
			<point x="485" y="224" type="line"/>
			<point x="485" y="499" type="line"/>
			<point x="810" y="499" type="line"/>
			<point x="810" y="224" type="line"/>
			<point x="937" y="224" type="line"/>
			<point x="937" y="613" type="line"/>
		</contour>
		<contour>
			<point x="311" y="260" type="line"/>
			<point x="311" y="146" type="line"/>
			<point x="969" y="146" type="line"/>
			<point x="969" y="260" type="line"/>
		</contour>
		<contour>
			<point x="579" y="331" type="line"/>
			<point x="569" y="150" />
			<point x="551" y="59" />
			<point x="294" y="11" type="curve"/>
			<point x="319" y="-15" />
			<point x="350" y="-64" />
			<point x="361" y="-96" type="curve"/>
			<point x="658" y="-30" />
			<point x="697" y="103" />
			<point x="710" y="331" type="curve"/>
		</contour>
		<contour>
			<point x="752" y="774" type="line"/>
			<point x="752" y="751" type="line"/>
			<point x="736" y="709" />
			<point x="695" y="638" />
			<point x="659" y="593" type="curve"/>
			<point x="686" y="578" />
			<point x="728" y="552" />
			<point x="752" y="533" type="curve"/>
			<point x="797" y="582" />
			<point x="855" y="661" />
			<point x="889" y="722" type="curve"/>
			<point x="801" y="779" type="line"/>
			<point x="781" y="774" type="line"/>
		</contour>
		<contour>
			<point x="144" y="855" type="line"/>
			<point x="144" y="-95" type="line"/>
			<point x="276" y="-95" type="line"/>
			<point x="276" y="855" type="line"/>
		</contour>
		<contour>
			<point x="55" y="654" type="line"/>
			<point x="50" y="571" />
			<point x="36" y="458" />
			<point x="16" y="389" type="curve"/>
			<point x="122" y="353" type="line"/>
			<point x="140" y="432" />
			<point x="155" y="554" />
			<point x="157" y="641" type="curve"/>
		</contour>
		<contour>
			<point x="228" y="658" type="line"/>
			<point x="252" y="587" />
			<point x="279" y="492" />
			<point x="290" y="436" type="curve"/>
			<point x="378" y="472" type="line"/>
			<point x="366" y="525" />
			<point x="336" y="617" />
			<point x="310" y="687" type="curve"/>
		</contour>
		<contour>
			<point x="616" y="532" type="line"/>
			<point x="581" y="468" />
			<point x="519" y="405" />
			<point x="453" y="364" type="curve"/>
			<point x="479" y="350" />
			<point x="523" y="319" />
			<point x="543" y="300" type="curve"/>
			<point x="607" y="348" />
			<point x="677" y="425" />
			<point x="720" y="502" type="curve"/>
		</contour>
		<contour>
			<point x="600" y="409" type="line"/>
			<point x="655" y="380" />
			<point x="728" y="336" />
			<point x="763" y="306" type="curve"/>
			<point x="826" y="383" type="line"/>
			<point x="788" y="412" />
			<point x="714" y="453" />
			<point x="659" y="478" type="curve"/>
		</contour>
		<contour>
			<point x="655" y="70" type="line"/>
			<point x="735" y="19" />
			<point x="843" y="-57" />
			<point x="892" y="-107" type="curve"/>
			<point x="977" y="-10" type="line"/>
			<point x="922" y="38" />
			<point x="811" y="109" />
			<point x="734" y="155" type="curve"/>
		</contour>
	</outline>
</glyph>
<glyph name="cid34462" format="1" >
	<advance width="1000"/>
	<outline>
		<contour>
			<point x="55" y="256" type="line"/>
			<point x="55" y="147" type="line"/>
			<point x="947" y="147" type="line"/>
			<point x="947" y="256" type="line"/>
		</contour>
		<contour>
			<point x="58" y="502" type="line"/>
			<point x="58" y="402" type="line"/>
			<point x="945" y="402" type="line"/>
			<point x="945" y="502" type="line"/>
		</contour>
		<contour>
			<point x="236" y="855" type="line"/>
			<point x="236" y="639" type="line"/>
			<point x="380" y="639" type="line"/>
			<point x="380" y="855" type="line"/>
		</contour>
		<contour>
			<point x="616" y="855" type="line"/>
			<point x="616" y="666" type="line"/>
			<point x="761" y="666" type="line"/>
			<point x="761" y="855" type="line"/>
		</contour>
		<contour>
			<point x="427" y="582" type="line"/>
			<point x="427" y="298" type="line"/>
			<point x="571" y="298" type="line"/>
			<point x="571" y="582" type="line"/>
		</contour>
		<contour>
			<point x="775" y="664" type="line"/>
			<point x="619" y="632" />
			<point x="343" y="620" />
			<point x="107" y="621" type="curve"/>
			<point x="118" y="596" />
			<point x="131" y="550" />
			<point x="133" y="522" type="curve"/>
			<point x="375" y="519" />
			<point x="666" y="531" />
			<point x="867" y="575" type="curve"/>
		</contour>
		<contour>
			<point x="415" y="462" type="line"/>
			<point x="338" y="399" />
			<point x="184" y="357" />
			<point x="28" y="342" type="curve"/>
			<point x="54" y="317" />
			<point x="87" y="269" />
			<point x="104" y="238" type="curve"/>
			<point x="264" y="266" />
			<point x="416" y="331" />
			<point x="505" y="427" type="curve"/>
		</contour>
		<contour>
			<point x="720" y="303" type="line"/>
			<point x="632" y="87" />
			<point x="429" y="34" />
			<point x="58" y="20" type="curve"/>
			<point x="77" y="-8" />
			<point x="96" y="-52" />
			<point x="105" y="-89" type="curve"/>
			<point x="510" y="-62" />
			<point x="731" y="4" />
			<point x="845" y="267" type="curve"/>
		</contour>
		<contour>
			<point x="185" y="77" type="line"/>
			<point x="455" y="27" />
			<point x="705" y="-38" />
			<point x="849" y="-92" type="curve"/>
			<point x="969" y="-10" type="line"/>
			<point x="806" y="41" />
			<point x="538" y="106" />
			<point x="286" y="151" type="curve"/>
		</contour>
		<contour>
			<point x="185" y="77" type="curve"/>
			<point x="340" y="77" type="line"/>
			<point x="398" y="126" />
			<point x="477" y="208" />
			<point x="533" y="285" type="curve"/>
			<point x="385" y="326" type="line"/>
			<point x="338" y="243" />
			<point x="252" y="141" />
		</contour>
		<contour>
			<point x="47" y="810" type="line"/>
			<point x="47" y="697" type="line"/>
			<point x="484" y="697" type="line"/>
			<point x="484" y="810" type="line"/>
		</contour>
		<contour>
			<point x="515" y="810" type="line"/>
			<point x="515" y="698" type="line"/>
			<point x="952" y="698" type="line"/>
			<point x="952" y="810" type="line"/>
		</contour>
		<contour>
			<point x="580" y="344" type="line"/>
			<point x="697" y="323" />
			<point x="813" y="292" />
			<point x="881" y="267" type="curve"/>
			<point x="979" y="346" type="line"/>
			<point x="901" y="370" />
			<point x="769" y="400" />
			<point x="654" y="419" type="curve"/>
		</contour>
	</outline>
</glyph>
